<svg width="1920" height="753" viewBox="0 0 1920 753" fill="none" xmlns="http://www.w3.org/2000/svg">
<g filter="url(#filter0_f_2324_3634)">
<path d="M2437.48 429.194C2366.96 430.185 2318.85 429.891 2254.57 442.959C2239.65 446.157 2224.34 450.05 2208.82 454.701C2156.49 470.096 2103.91 494.994 2054.83 529.815C2007.37 563.546 1949.02 609.566 1882.25 610.883L1882.28 610.882C1848.83 613.25 1815.14 607.432 1786.71 594.958C1672.59 536.575 1611 436.1 1518.19 372.714C1513.62 369.306 1511.09 366.906 1508.97 365.362C1489.39 350.889 1454.67 328.987 1433.72 317.138C1432.51 316.44 1431.27 315.73 1430.01 315.008L1430 315.002C1385.46 288.459 1307.97 251.823 1265.21 236.267C1246.64 229.101 1227.39 222.735 1220.27 219.369C1213.42 217.159 1209.32 216.979 1207.49 216.487C1207.47 216.48 1207.44 216.473 1207.42 216.466C1201.45 214.818 1186.98 210.062 1183.61 209.246C1183.13 209.132 1185.91 210.589 1178.06 208.319C1177.35 208.123 1178.15 207.799 1171.43 206.109C1169.66 205.586 1146.99 201.082 1140.46 199.901C1118.98 195.164 1067.14 187.429 1040.99 186.917C1036.98 186.751 1034.68 186.959 1030.47 186.861C1028.3 186.811 1025.05 186.453 1024.38 186.448C1021.43 186.38 1008.63 187.885 1013.22 185.074C999.832 185.449 1003.8 186.366 1003.5 186.946C988.996 187.474 981.993 186.807 978.303 188.465C946.994 190.888 916.003 196.438 886.082 205.51C848.206 216.95 812.108 234.152 778.86 256.101C778.965 256.301 779.07 256.501 779.175 256.701C761.192 267.707 756.496 273.46 746.2 279.851C740.56 284.699 735.041 289.664 729.597 294.772C657.855 356.505 603.63 437.211 552.176 519.452C526.179 560.578 501.096 602.876 470.268 642.803C440.931 680.134 394.634 730.519 330.797 718.121C327.403 717.47 324.086 716.668 320.844 715.716C311.209 712.522 308.566 711.65 294.385 703.072C278.663 693.363 261.798 675.223 250.389 657.261C239.966 641.471 228.434 617.896 220.035 600.175C218.108 596.134 216.47 593.389 216.268 592.962C215.043 590.354 215.415 590.012 214.222 587.453C212.793 584.388 210.702 580.774 209.113 577.327C202.99 564.027 196.266 549.939 195.521 548.357C191.847 540.454 191.391 538.42 191.089 537.768C186.992 529.044 188.16 532.493 187.142 530.31C181.76 518.848 178.839 510.382 170.226 495.717C170.789 495.95 171.351 496.184 171.913 496.417C166.1 484.592 169.14 492.821 167.741 490.512C167.253 489.549 154.148 464.649 153.069 462.838C149.473 456.189 149.79 455.727 149.481 455.152C148.775 453.792 138.772 437.469 134.207 429.087C128.727 418.966 136.638 429.991 135.331 427.443C135.151 427.043 128.691 416.673 128.134 415.184C127.481 413.435 133.001 422.392 133.032 422.179C133.063 421.96 124.571 406.924 126.734 409.468C128.574 411.316 140.368 431.867 142.989 436.026C143.444 436.725 143.179 435.053 143.572 435.678C145.462 438.049 171.613 485.694 172.366 488.046C170.772 485.573 169.281 483.319 167.713 480.938C169.424 484.258 171.115 487.573 172.842 490.997C170.132 486.216 167.547 481.749 164.824 477.095C166.531 485.109 179.442 505.358 180.906 505.802C181.552 505.883 176.221 492.203 183.053 504.038C182.223 502.068 181.43 500.183 180.625 498.282C178.514 494.596 176.363 490.877 174.171 487.125C175.373 489.76 176.555 492.378 177.719 494.981C177.101 494.121 176.482 493.259 175.86 492.395C171.914 485.247 168.101 478.51 164.039 471.477C162.167 467.743 163.007 468.306 161.754 465.801C145.633 434.313 155.706 455.328 144.329 435.134C142.835 432.084 141.454 429.258 139.975 426.298C139.702 427.902 134.938 418.586 128.071 408.551C129.139 409.606 130.202 410.66 131.26 411.713C121.845 396.558 102.689 365.724 106.676 374.878C104.515 371.465 102.313 368.036 100.067 364.593C97.8187 361.957 95.4932 359.246 93.2379 356.666C90.5036 352.842 87.7136 349.003 84.8661 345.147C84.9858 345.029 85.1055 344.911 85.225 344.792C87.5206 347.851 89.7798 350.9 92.0034 353.939C90.7431 351.355 89.4602 348.763 88.1541 346.161C86.404 343.954 84.6345 341.742 82.8453 339.526C89.664 349.351 79.4898 337.153 76.7579 334.761C70.5577 327.143 67.1946 321.584 65.1075 318.927C64.1747 317.669 51.3367 304.535 57.2126 308.995C50.9807 301.793 44.6573 294.705 38.2729 287.755C35.9188 284.882 33.5307 282.003 31.1077 279.117C33.8432 281.63 32.2433 279.26 30.761 277.096L30.7955 277.134C29.3087 274.979 27.9595 273.04 31.4329 276.549L31.401 276.514C32.0626 277.191 32.8959 278.066 33.9276 279.174C42.763 288.703 44.1891 291.553 48.1263 296.115C51.7053 300.297 54.0188 302.268 57.8607 306.851C83.6256 337.802 102.89 364.34 123.599 396.521C127.731 402.972 131.57 408.627 134.176 412.895C137.184 417.839 132.855 411.992 136.847 418.201C141.004 424.708 142.247 425.844 143.293 427.568C143.941 428.642 145.555 432.25 147.449 435.495C155.139 448.532 166.084 467.755 167.092 469.703C168.445 471.846 187.543 510.11 188.275 512.123C188.719 513.129 186.216 511.803 191.962 519.514C193.3 522.195 194.62 524.856 195.923 527.495C195.415 527.213 194.907 526.93 194.399 526.648C203.039 541.774 199.887 536.811 207.148 552.024C225.279 588.243 246.492 645.284 280.722 680.477C288.458 687.896 291.902 690.587 303.046 697.394C309.522 701.514 323.878 707.553 332.639 708.853C337.9 709.801 340.718 709.787 338.224 708.874C365.36 712.619 369.653 706.643 382.829 704.289C384.276 703.513 385.703 702.703 387.111 701.861C400.912 696.617 404.366 693.362 416.471 684.131C421.568 679.926 416.537 685.611 425.83 676.059C427.733 674.468 429.627 672.824 431.515 671.13C431.26 671.717 431.003 672.303 430.744 672.887C441.396 662.298 441.542 661.804 439.881 662.332C444.706 657.491 449.729 652.029 454.128 647.008C454.442 646.158 454.755 645.304 455.066 644.449C454.65 642.693 399.213 723.171 332.913 707.497C310.281 703.428 295.298 691.65 290.383 687.757C268.101 670.541 242.994 625.088 234.448 606.866C230.896 599.515 229.929 595.946 224.991 585.344C219.969 574.538 213.221 561.501 210.589 555.935C202.177 536.663 158.27 449.488 188.955 508.519C188.409 506.65 187.853 504.772 187.289 502.885C174.373 479.84 179.35 488.006 169.186 468.529C164.959 460.396 153.483 441.574 155.413 441.943C164.169 456.654 172.399 473.016 179.211 486.219C179.939 487.575 188.539 502.965 192.361 511.262C195.742 518.597 192.103 514.346 201.257 529.647C205.594 542.463 210.059 548.628 211.744 551.853C214.582 557.288 214.098 558.121 216.608 563.714C219.363 569.857 221.734 573.685 222.118 574.495C225.793 582.819 246.942 625.634 248.08 627.495C247.017 625.838 246.022 624.282 244.993 622.642C250.656 633.663 250.258 631.068 251.912 633.85C253.113 635.967 254.303 638.024 255.597 640.201C254.949 639.441 254.299 638.668 253.654 637.898C261.509 650.707 255.57 640.77 267.503 658.316C275.184 669.369 285.012 680.022 286.073 680.814C286.368 681.07 283.513 677.8 287.638 681.579C294.39 688.189 308.506 696.634 310.07 697.735C314.351 699.705 314.242 698.927 314.807 699.179C315.813 699.574 323.485 702.911 333.462 704.73C348.159 707.979 366.67 705.177 371.391 703.66C394.069 698.124 415.266 682.717 432.088 665.744C433.867 663.951 432.996 665.348 434.763 663.536C437.495 661.001 450.736 645.164 452.374 642.875C457.274 636.96 469.201 621.54 470.936 618.753C471.181 618.379 466.894 623.417 471.316 617.089C476.037 610.245 473.954 614.267 474.229 613.901C484.295 600.155 489.808 590.97 496.213 581.092C498.317 577.84 502.401 572.478 505.176 567.887C505.493 567.363 504.448 568.134 504.754 567.616C508.933 560.674 513.657 554.826 515.541 551.956C520.181 544.877 517.183 548.43 517.414 548.058C520.417 543.271 524.72 536.862 529.205 529.666C549.459 497.211 565.924 470.731 588.79 437.271C591.664 433.073 595.493 428.347 595.942 427.706C597.329 425.718 596.481 425.992 600.487 420.332C608.965 408.395 616.978 397.425 625.815 385.926C627.598 383.609 628.749 382.919 630.125 381.168C634.604 375.283 649.797 354.754 651.317 355.54C659.782 343.364 667.279 336.809 675.331 328.129C694.269 307.311 726.542 277.265 749.262 260.94C753.994 257.452 756.458 256.192 759.127 254.313C763.748 250.661 791.817 232.508 793.542 231.922C796.607 230.352 795.601 232.688 810.325 223.022C819.447 218.157 818.732 219.437 820.657 218.507C835.648 211.387 850.102 203.961 847.859 206.47C863.669 199.68 874.665 195.465 882.647 193.879C883.632 193.687 884.566 193.54 885.451 193.44C885.157 192.818 893.803 189.747 904.474 187.389C896.226 190.419 895.346 191.232 882.998 195.068C879.485 196.184 875.075 197.574 869.419 199.466C869.015 199.602 869.628 198.866 869.223 199.002C865.526 200.225 858.114 203.159 851.973 205.571C845.789 208.011 849.093 206.328 846.633 207.334C844.389 208.268 844.638 208.671 841.418 210.048C831.002 214.511 822.068 219.014 816.279 221.972C812.648 223.82 808.439 225.579 805.674 227.086C794.865 232.772 772.95 246.649 760.306 255.809C757.666 257.691 758.48 256.49 752.742 260.659C752.083 261.147 749.908 263.333 745.034 267.218C740.162 271.111 736.259 273.954 733.201 276.528C730.649 278.693 732.001 278.1 726.765 282.557C721.789 285.557 675.131 330.698 673.244 333.848C669.74 337.525 667.687 338.912 665.666 341.288C665.313 341.709 665.134 342.791 663.911 344.24C643.247 367.651 601.184 422.746 581.61 452.969C539.553 515.231 506.852 576.933 459.666 638.374C458.869 639.543 458.071 640.702 457.271 641.852C462.375 635.545 466.917 629.607 471.639 623.202C471.891 623.325 472.143 623.449 472.396 623.572C478.808 614.864 477.243 615.822 476.807 615.779C479.174 612.757 481.544 609.678 483.918 606.547C485.199 603.146 500.191 581.984 507.217 570.937C511.947 563.603 517.112 554.772 519.557 550.959C524.747 542.856 525.132 543.345 525.543 542.713C526.319 541.51 532.848 530.138 538.075 521.856C545.714 509.777 547.247 509 557.088 492.097C570.942 471.255 585.798 448.113 601.179 426.078C598.922 430.728 612.081 410.652 618.597 402.008C657.5 348.791 713.029 289.009 768.122 252.59C775.16 247.825 780.794 244.83 784.766 242.333C786.925 240.982 787.567 239.893 790.648 238.128C791.195 237.827 791.821 238.043 797.581 234.795C811.564 226.308 848.342 208.426 858.585 206.223C866.781 203.097 875.16 200.203 883.732 197.558C928.715 183.647 975.91 177.659 1023.11 177.979C1024.52 178.218 1025.92 178.461 1027.32 178.71C1038 177.37 1080.11 180.843 1100.45 184.085C1136.43 188.826 1181.64 199.184 1212.17 208.533C1218.81 210.526 1224.06 212.515 1230.35 214.548C1233.04 215.418 1236.5 216.114 1239.27 217.041C1270.57 227.354 1312.03 244.542 1341.99 258.571C1374.32 273.527 1404.66 289.506 1434.72 306.723C1468.66 326.005 1501.23 347.475 1533.38 371.996C1647.37 445.646 1719.08 606.148 1881.71 600.299L1881.7 600.3C1946.16 598.605 1999.26 556.591 2046.35 523.172C2094.46 488.915 2147.07 462.494 2203.13 445.396C2204.43 444.99 2205.23 444.826 2205.86 444.727C2206.83 444.579 2207.43 444.583 2208.97 444.119C2223.9 439.401 2257.74 430.631 2275.16 427.63C2288.99 424.941 2311.21 422.578 2315.91 421.32C2279.61 424.933 2242.13 432.515 2205.53 443.595C2191.78 447.756 2178.7 452.193 2165.38 457.256C2161.94 458.569 2161.37 458.31 2160.95 458.467C2153.06 461.48 2158.09 460.051 2146.96 464.794C2142.97 466.118 2108.44 481.34 2113.19 480.809C2104.49 483.513 2049.93 517.196 2040.28 525.191C2037.19 527.443 2039.65 526.238 2039.04 526.693C2036.41 528.666 2034.87 529.029 2032.5 530.695C2026.13 535.193 2010.17 547.187 2007.02 549.328C1999.93 554.426 1977.43 568.638 1966.84 574.089C1957.23 579.194 1959.32 578.838 1950.69 582.8C1943.81 585.677 1951.24 582.423 1935.54 588.03C1927.85 591.242 1899.6 597.693 1892.51 597.925C1889.18 598.293 1885.6 598.523 1881.62 598.681L1881.63 598.681C1877.44 598.85 1872.98 598.93 1868.14 598.956C1854.2 599.626 1824.01 595.591 1810.53 590.855C1809.72 590.611 1807.59 590.452 1805.61 589.767C1801.53 588.33 1802.96 588.19 1799.93 587.005C1796.05 587.4 1746.99 560.292 1740.43 553.466C1735.27 549.624 1731.57 547.155 1728.76 544.903C1726.57 543.143 1726.69 542.588 1724.5 540.789C1723.85 540.263 1717.69 535.74 1712.17 530.896C1706.66 526.249 1687.57 508.04 1685.33 505.826C1683.89 504.454 1685.17 506.166 1680.95 502.148C1677.09 498.461 1674.84 495.658 1672.61 493.506C1667.58 488.647 1661.47 483.277 1656.16 478.141C1640.55 463.044 1641.87 463.556 1640.92 462.606C1638.36 460.076 1636.94 459.449 1636.07 458.634C1632.51 455.276 1623.56 446.913 1620.34 443.941C1616.34 440.23 1614.98 438.275 1610.64 434.27C1607.42 431.305 1600.68 425.778 1593.21 419.16C1576.44 404.259 1556.06 387.35 1538.73 373.989C1533.53 369.98 1532.94 368.976 1531.4 367.792C1523.16 361.49 1518 358.41 1515.55 356.626C1498.45 343.967 1466.95 322.449 1449.8 312.448C1447.48 311.06 1442.46 308.141 1435.98 304.525C1423.74 297.621 1405.72 287.843 1394.06 281.709C1392.07 280.661 1394.1 281.319 1391.88 280.218C1386.5 277.566 1386.61 278.454 1383.82 276.995C1382.38 276.24 1379.74 274.429 1375.86 272.426C1355.84 262.13 1341.5 255.939 1332.23 251.725C1242.49 210.973 1144.65 181.977 1052.91 176.353C1042.7 175.715 1030.03 175.595 1014.58 175.271C1014.1 175.049 1013.63 174.826 1013.16 174.605C1012.62 174.832 1012.08 175.06 1011.54 175.289C994.066 175.74 987.498 176.346 969.696 177.654C968.173 177.772 963.406 177.226 960.656 178.838C943.017 180.124 952.724 179.778 939.805 181.825C926.873 184.014 914.387 186.318 902.038 189.391C895.115 190.544 923.409 182.727 925.325 182.612C928.343 182.025 931.614 182.069 934.534 181.595C943.189 180.178 951.511 178.554 953.545 178.864C964.732 176.849 950.753 178.907 952.092 178.208C959.649 177.422 967.166 176.827 974.738 176.404C978.458 173.778 1020.38 174.798 1017.47 173.74C1020.81 174.016 1024.13 174.324 1027.45 174.662C1042.09 173.229 1050.69 174.79 1070.05 177C1068.68 176.648 1067.29 176.301 1065.91 175.958C1066.33 175.842 1083.48 177.191 1077.26 177.53C1094.98 178.211 1093.9 180.235 1109.82 181.048C1119.15 182.356 1113.39 182.2 1129.99 185.161C1139.79 186.956 1152.06 189.029 1162.89 191.526C1165.37 192.099 1166.36 192.859 1168.59 193.394C1170.81 193.932 1172.02 193.71 1174.72 194.366C1180.28 195.716 1187.32 197.935 1190.81 198.853C1193.92 199.67 1198.46 200.445 1205.87 202.523C1231.87 210.032 1223.74 208.4 1227.79 209.851C1232.11 211.478 1235.51 211.687 1244.08 214.693C1244.95 215.002 1242.51 214.719 1245.37 215.671C1247.65 216.445 1249.02 216.295 1256.53 218.847C1259.6 219.573 1305.64 237.283 1312.31 240.459C1323.06 244.923 1346.13 255.88 1356.75 261.046C1360.93 263.045 1365.62 264.826 1369.87 266.928C1384.32 274.029 1407.37 286.149 1425.11 296.186C1426.93 297.21 1428.8 298.28 1430.64 299.345C1432.81 300.594 1434.92 301.826 1436.86 302.973C1452.42 312.016 1470.33 323.706 1477.23 327.338C1499.1 341.351 1503.51 345.753 1505.18 346.851C1509.48 349.9 1511.74 350.862 1517.09 354.694C1588.56 403.378 1664.69 488.062 1728.44 541.38C1769.85 576.415 1825.06 601.543 1881.51 596.397C1945.11 594.747 1997.26 553.18 2045.13 519.284C2093.91 484.632 2147.52 457.982 2204.7 440.793C2221.19 435.748 2237.88 431.378 2254.7 427.69C2255.15 427.36 2255.61 427.03 2256.06 426.701C2239.72 430.131 2221.37 434.635 2204.38 439.702C2198.35 441.496 2192.7 443.28 2187.33 445.072C2158.83 454.156 2119.39 473.128 2099.69 482.703C2107.41 478.221 2120.5 472.306 2119.92 471.74C2105.7 478.711 2091.84 486.338 2078.31 494.555C2078.9 494.622 2079.49 494.69 2080.08 494.758C2066.04 503.414 2051.98 512.783 2038.43 522.394C2036.05 524.083 2037.93 523.165 2035.86 524.629C2033.55 526.263 2034.92 524.879 2034.49 525.183C2028.71 529.275 2027.11 530.848 2026.41 531.342C2024.58 532.632 2025.82 531.349 2020.52 535.02C2010.7 541.837 2004.09 547.477 2005.6 544.676C2002.4 546.913 1999.22 549.103 1995.99 551.284C1995.37 552.176 1994.74 553.066 1994.12 553.953C1973.32 565.837 1964.57 573.465 1951.47 577.117C1947.58 579.248 1943.62 581.256 1939.58 583.138C1937.11 583.647 1934.63 584.112 1932.13 584.53C1931.77 585.005 1931.41 585.477 1931.05 585.947C1915.24 590.938 1898.06 594.138 1881.44 595.216C1873.95 595.722 1867.05 595.841 1859.94 595.566C1844.19 594.694 1840.32 593.965 1826.57 591.217C1796.38 583.211 1826.24 591.297 1801.96 582.533C1803.06 583.391 1804.18 584.239 1805.32 585.076C1801.22 583.799 1797.16 582.382 1793.15 580.831C1790.54 579.346 1787.94 577.796 1785.43 576.212C1772.73 572.014 1766.21 566.137 1764.66 565.233C1763.49 564.45 1758.44 562.933 1746.36 553.205C1750.72 558.174 1736.79 546.209 1735.75 545.242C1734.6 544.438 1720.62 533.503 1715.32 528.761C1711.04 525.054 1702.36 516.851 1696.18 511.112C1690.81 506.14 1691.01 506.973 1690.62 506.616C1683.96 500.4 1688.31 503.977 1683.62 499.502C1678.92 495.01 1674.92 491.73 1673.91 490.712C1673.42 490.211 1675.43 491.509 1673.14 489.248C1666.98 483.148 1655.34 472.413 1648.15 465.458C1645.63 463.022 1642.69 459.652 1639.82 456.889C1635.43 452.666 1633.11 451.17 1630.56 448.729C1629.68 447.887 1624.55 441.909 1617.41 435.45C1616.06 434.225 1610.88 431.713 1607.25 425.184C1606.62 425.062 1605.98 424.939 1605.35 424.817C1580.77 403.761 1575.42 396.013 1562.84 388.702C1544.74 373.669 1557.87 383.109 1555.97 381.37C1554.69 380.218 1548.56 375.675 1547.91 375.16C1546.77 374.222 1547.15 374.141 1545.87 373.139C1521.98 354.831 1532.28 363.559 1524.45 358.125C1505.69 345.553 1492.45 333.896 1523.99 357.193C1524.09 357.057 1524.19 356.921 1524.29 356.785C1516.36 351.032 1496.31 337.096 1503.52 341.047C1509.54 343.839 1555.74 379.107 1530.03 358.602C1524.15 353.989 1520.55 352.076 1510.73 343.688C1503.71 338.711 1501.73 339.184 1492.53 332.266C1493.82 333.771 1495.09 335.274 1496.36 336.777C1482.92 328.487 1466.89 317.28 1456.25 311.292C1452.74 309.263 1438.51 303.974 1442.8 303.51C1441.78 302.952 1440.14 302.022 1438.08 300.849C1428.19 295.135 1407.32 283.319 1402.83 281.208C1401.52 280.61 1399.24 280.759 1380.59 270.702C1379.37 269.894 1378.14 269.082 1376.9 268.265C1394.37 276.517 1363.98 260.673 1372.86 263.688C1375.64 265.686 1389.01 272.878 1391.15 274.347C1394.64 276.732 1383.28 271.526 1397.45 278.739C1407.49 281.557 1381.36 269.03 1386.13 269.234C1366.92 260.556 1365.49 259.011 1361.08 256.811C1342.77 247.873 1331.02 242.815 1313.31 235.007C1308.78 233.434 1340.74 248.03 1344.49 249.732C1329.56 244.535 1354.26 255.861 1365.04 260.221C1365.72 261.052 1366.39 261.881 1367.05 262.709C1353.56 255.829 1340.55 249.633 1326.7 243.925C1325.89 243.386 1325.08 242.846 1324.27 242.306C1327.41 243.405 1330.48 244.485 1333.71 245.658C1322.49 240.222 1328.98 244.465 1314.13 236.825C1313.47 237.095 1312.81 237.366 1312.14 237.637C1297.75 231.359 1283 225.315 1268.36 219.724C1260.3 217.677 1231.73 207.61 1237.4 208.166C1225.76 204.264 1239.97 209.622 1228.9 206.378C1224.03 204.952 1214.8 202.166 1212.55 201.136C1213.95 200.217 1227.88 204.339 1232.44 204.944C1230.13 203.201 1164.21 185.953 1170.29 186.497C1165 185.059 1167.29 186.342 1157.69 184.364C1130.8 178.605 1088.72 170.774 1066.42 171.077C1092.17 174.483 1099.92 174.609 1119.61 177.727C1132.42 178.722 1207.74 197.22 1190.56 194.46C1193.37 195.041 1196.16 195.634 1198.94 196.239C1201.6 197.396 1204.22 198.555 1206.88 199.739C1199.14 197.544 1191.27 195.43 1183.42 193.45C1181.66 192.585 1179.89 191.726 1178.12 190.872C1177.18 190.926 1176.25 190.981 1175.31 191.038C1171.99 190.269 1168.64 189.516 1165.3 188.789C1166.3 188.677 1167.33 188.574 1168.34 188.469C1163.22 187.185 1158.15 185.971 1153.01 184.793C1154.29 185.535 1155.58 186.28 1156.85 187.028C1132.57 181.93 1140.92 183.474 1127.54 180.076C1117.43 178.227 1134.34 181.958 1112.95 178.619C1087.94 175.25 1104.6 175.82 1072.06 172.602C1071.56 172.782 1071.07 172.963 1070.58 173.144C1063.45 172.265 1056.3 171.511 1049.15 170.89C1050.08 171.222 1051.01 171.556 1051.93 171.892C1037.13 170.794 1016.73 171.201 1011.81 170.23C1026.84 170.661 1026.74 168.9 1022.82 168.471C1015.37 165.546 913.158 174.52 880.926 188.049C878.071 188.932 875.722 189.691 873.961 190.266C845.867 199.59 824.861 208.291 801.43 222.056C815.151 214.488 859.712 194.441 881.184 188.925C884.925 187.821 887.857 187.036 889.653 186.612C890.839 186.344 890.94 188.078 897.954 184.181C922.272 178.126 951.792 172.366 983.062 170.352C982.137 170.921 981.216 171.493 980.297 172.067C961.035 172.347 943.732 177.476 945.963 175.144C942.188 175.697 938.414 176.298 934.642 176.947C934.696 177.281 934.75 177.614 934.804 177.948C929.125 178.925 923.472 180.011 917.856 181.203C917.789 180.872 917.722 180.541 917.655 180.21C912.988 181.201 908.325 182.27 903.669 183.42C903.263 183.867 902.863 184.314 902.462 184.761C897.861 185.669 889.718 187.877 881.637 190.458C865.037 195.705 849.457 202.326 862.348 196.067C856.058 198.324 849.829 200.729 843.556 203.328C843.669 203.548 843.782 203.768 843.894 203.988C841.23 205.128 838.585 206.292 835.961 207.48C836.741 206.894 837.525 206.31 838.313 205.727C826.38 211.284 814.546 215.873 807.227 220.645C812.364 218.109 817.57 215.665 822.847 213.319C812.613 217.722 795.369 228.054 793.773 229.075C788.983 231.864 786.224 232.932 781.122 236.065C776.534 238.912 777.379 238.854 776.523 239.38C751.968 255.154 760.075 247.452 750.437 257.348C749.08 257.935 747.711 258.539 746.347 259.149C744.963 260.541 743.589 261.94 742.226 263.345C735.362 268.611 728.692 274.006 722.088 279.618C724.551 278.062 727.029 276.524 729.497 275.025C719.687 283.417 714.694 286.888 713.734 287.691C711.058 290.017 710.217 291.502 709.408 292.239C671.231 328.609 694.05 306.048 674.129 323.589C668.255 331.015 675.329 324.563 676.822 324.145C668 333.021 665.547 336.051 656.806 345.985C654.542 348.573 651.819 351.108 650.414 352.76C649.192 354.189 645.769 358.968 642.899 362.475C638.108 368.308 631.668 375.92 625.368 384.12C620.079 390.886 604.663 412.179 594.291 427.225C589.811 433.678 590.549 431.967 589.397 433.634C588.917 434.328 585.839 439.617 583.047 443.758C560.152 477.616 537.786 513.305 515.738 548.233C500.169 572.817 484.493 597.95 467.025 621.561C463.273 626.594 464.99 623.726 463.346 625.896C462.744 626.66 462.694 627.82 456.478 635.347C454.198 638.077 456.426 634.633 454.235 637.34C453.167 638.621 453.122 639.638 446.994 647.052C435.38 660.922 427.825 666.79 426.668 667.983C424.499 670.074 425.43 669.803 422.51 672.461C407.831 685.584 393.688 694.99 376.554 700.56C372.161 702.331 351.325 707.05 333.797 703.056C320.569 700.646 310.211 695.028 309.055 694.378C302.968 690.753 309.016 693.393 301.431 688.609C299.215 687.388 297.044 686.072 294.948 684.696C297.932 687.283 301.2 689.786 304.552 692.01C295.054 686.049 285.701 677.771 280.314 671.677C279.221 670.66 270.793 659.792 266.967 654.047C268.724 656.297 270.654 658.689 272.56 660.922C272.043 660.006 271.53 659.081 271.022 658.148C262.675 647.131 255.338 634.58 248.749 622.177C246.404 617.732 247.505 619.088 245.132 614.482C231.846 587.886 234.017 595.249 224.27 568.299C228.026 577.107 243.59 608.735 245.94 613.123C247.536 616.479 252.018 629.57 251.679 624.025C265.762 648.81 251.975 628.289 266.486 650.794C266.422 650.187 266.36 649.58 266.299 648.971C271.575 656.605 275.933 661.993 279.27 666.721C280.961 667.475 303.038 691.668 320.766 696.452C325.166 698.037 329.574 699.228 334.381 700.12C355.877 704.556 379.658 698.447 397.055 687.54C404.502 683.021 408.638 680.359 409.499 679.752C410.758 678.813 413.979 675.692 416.445 673.583C425.876 666.56 450.395 640.185 454.623 632.008C426.077 668.36 385.017 709.709 334.564 699.207C313.004 695.376 294.258 682.137 280.597 665.674C283.245 669.22 272.687 657.735 263.755 643.339C254.64 629.063 246.385 612.527 245.566 610.935C244.122 608.027 245.763 610.255 245.351 609.382C242.258 602.847 238.909 597.45 237.928 595.429C237.177 593.879 235.847 590.428 233.173 584.816C232.685 583.792 232.255 583.649 231.729 582.54C228.205 575.095 224.86 567.917 221.328 560.357C221.105 559.872 220.682 557.836 219.816 555.979C218.948 554.12 217.649 552.469 217.426 551.995C214.603 545.942 210.199 535.842 207.452 530.071C206.507 528.086 206.849 529.617 205.82 527.452C202.642 520.794 204.335 522.717 200.121 514.422C198.697 511.634 198.358 512.121 195.823 506.805C194.021 503.039 195.045 503.013 194.781 502.402C194.391 501.488 187.321 489.033 185.659 484.508C191.834 493 180.521 474.349 180.413 475.69C177.947 470.613 175.33 465.336 172.784 460.284C171.715 458.674 170.637 457.06 169.551 455.44C159.029 434.797 151.583 422.998 139.755 403.558C139.28 402.687 129.121 386.175 129.847 386.916C136.544 396.368 142.484 405.838 145.732 412.633C153.261 422.23 152.389 422.88 162.291 439.707C165.529 445.267 166.114 445.526 166.49 446.179C179.225 468.14 197.686 504.466 203.948 520.413C206.335 524.624 198.878 508.922 202.037 514.912C203.928 517.952 241.503 597.621 228.364 572.673C229.645 575.318 230.945 577.994 232.219 580.603C234.556 582.622 240.617 595.914 238.766 594.956C239.594 596.071 240.42 597.176 241.244 598.272C242.612 600.568 244.197 603.524 246.261 607.465C250.403 614.971 263.219 642.345 281.383 664.208C299.029 687.134 325.819 696.119 328.33 696.205C328.528 695.949 328.725 695.691 328.922 695.434C284.58 682.885 262.581 638.58 241.688 595.164C242.06 596.57 242.415 597.936 242.8 599.356C234.461 581.472 226.61 563.405 218.597 545.4C227.972 564.153 242.098 593.997 251.892 613.611C253.633 617.108 251.962 614.755 252.336 615.572C253.349 617.741 254.953 619.45 259.15 626.861C263.032 634.125 274.076 652.038 275.343 653.371C277.521 656.43 284.223 663.742 288.447 668.115C294.148 673.995 289.982 670.402 291.125 671.581C295.84 676.307 300.744 679.949 305.07 682.911C311.177 687.683 326.183 694.675 331.822 694.304C326.479 692.985 321.228 691.107 316.293 688.719C322.676 691.601 328.978 693.561 335.431 694.861C356.17 699.087 376.512 695.456 395.639 682.633C400.614 677.945 379.833 690.456 397.145 679.403C393.952 681.489 390.844 683.324 387.522 685.052C386.873 685.737 386.215 686.413 385.548 687.08C379.593 689.682 373.543 691.619 367.308 692.806C369.124 692.681 370.95 692.489 372.786 692.23C359.756 696.398 346.057 696.456 335.576 694.128C328.575 692.635 323.508 690.417 320.837 688.677C320.275 688.843 319.709 689.004 319.139 689.158C299.231 681.557 278.024 656.062 283.434 659.562C282.69 658.82 282.011 658.143 281.302 657.413C273.785 646.77 276.508 651.667 273.608 647.745C272.547 646.767 259.685 624.508 266.078 634.02C254.012 612.1 256.417 619.652 253.007 613.577C246.328 598.893 232.737 573.142 239.271 583.504C238.304 581.344 237.331 579.159 236.35 576.949C231.841 570.134 229.83 562.688 226.541 554.597C225.35 551.983 224.145 549.34 222.924 546.669C221.737 545.061 220.536 543.425 219.342 541.808C209.318 516.165 208.455 526.389 206.837 513.09C207.932 514.76 209.02 516.42 210.1 518.071C212.225 522.207 214.282 526.236 216.421 530.467C208.548 513.57 200.34 496.467 191.904 479.842C182.03 458.188 174.385 446.754 161.859 423.4C160.479 421.28 159.163 419.287 157.794 417.22C159.897 418.857 164.72 427.164 155.906 411.619C155.737 409.992 161.963 420.148 164.346 425.317C164.915 426.544 158.673 416.927 165.153 428.045C169.455 435.578 162.441 421.473 174.921 444.182C174.595 443.252 174.267 442.32 173.936 441.386C175.328 443.877 176.7 446.355 178.054 448.822C178.921 451.204 179.773 453.574 180.608 455.931C184.119 461.256 186.649 464.197 193.206 477.207C191.125 473.724 192.996 478.997 196.288 485.444C196.538 485.314 196.789 485.184 197.039 485.054C205.033 500.505 201.714 495.741 208.63 508.367C209.071 509.783 209.524 511.231 209.964 512.654C214.324 519.424 227.267 545.461 223.769 541.294C228.512 548.228 235.198 564.027 236.896 570.163C237.36 570.494 237.824 570.823 238.287 571.15C239.801 574.236 241.296 577.272 242.777 580.256C243.412 581.987 244.087 583.796 244.761 585.593C245.96 587.702 247.152 589.782 248.338 591.832C248.713 593.246 249.07 594.617 249.46 596.045C251.489 599.411 253.503 602.689 255.504 605.875C256.322 607.976 257.262 610.288 258.139 612.443C258.679 612.441 269.812 632.517 273.013 637.899C274.121 639.337 275.339 640.91 276.514 642.373C276.792 643.296 277.072 644.213 277.355 645.124C278.32 646.143 279.285 647.137 280.249 648.107C281.96 650.894 283.695 653.572 285.459 656.132C294.713 665.186 294.35 665.825 296.372 667.935C299.973 672.083 314.961 681.426 317.726 682.267C320.309 683.58 321.392 684.567 323.564 685.47C328.722 687.565 332.925 688.642 336.524 689.379C347.419 691.356 349.772 690.524 350.657 690.414C351.461 690.156 350.446 689.919 353.762 689.719C357.911 689.404 360.844 689.47 364.469 688.714C367.581 688.131 376.789 685.546 385.032 681.065C393.112 676.857 400.433 671.187 401.111 670.728C403.412 669.088 399.363 674.923 406.396 668.781C406.138 667.844 421.732 655.323 413.746 660.41C419.939 654.971 425.886 649.042 431.634 642.81C430.032 642.552 437.529 635.561 444.657 626.404C454.762 613.993 475.125 582.599 475.328 584.644C477.24 581.226 479.161 577.76 481.09 574.248C496.291 551.962 509.973 529.051 524.42 506.08C566.876 438.163 615.993 364.421 673.071 306.542C675.808 303.757 675.737 304.487 677.716 302.501C687.909 291.896 716.083 265.657 732.732 253.308C738.004 249.263 740.903 247.691 742.587 246.465C748.368 242.31 746.682 242.836 749.363 240.931C753.509 237.773 776.72 223.097 785.057 218.555C789.134 216.199 793.735 213.06 798.609 210.597C799.028 210.384 798.489 211.222 798.844 211.041C807.671 206.407 802.188 208.856 805.19 207.305C826.787 196.278 850.418 186.345 875.567 178.62C876.311 178.391 877.104 178.154 877.934 177.912C884.049 176.111 892.108 174.161 896.848 172.986C898.904 172.479 895.12 173.033 902.242 171.3C904.694 170.716 905.636 170.982 908.405 170.376C920.329 167.839 924.066 165.586 934.614 165.012C954.499 161.282 989.52 157.93 1007.94 157.842C1012.28 157.764 1014.38 158.029 1018.54 158.02C1021.48 158.015 1026.66 157.62 1031.24 157.724C1035.81 157.824 1043.05 158.463 1051.83 158.963C1061.05 159.46 1072.59 160.254 1074.65 160.468C1077.16 160.71 1078.27 161.351 1080.76 161.607C1088.37 162.316 1108.62 164.47 1118.31 166.08C1128.66 167.72 1134.88 169.188 1138.4 169.854C1141.67 170.475 1145.55 170.806 1147.04 171.108C1149.35 171.577 1149.8 172.201 1152.75 172.822C1157.56 173.843 1162.56 174.608 1169.7 176.284C1268.22 199.68 1359.93 240.308 1444.72 289.212C1471.28 304.373 1496.94 320.848 1521.63 338.558C1533.24 346.955 1539.95 351.355 1556.52 364.518C1563.1 369.807 1560.01 368.041 1565.28 372.142C1567.62 373.978 1567.31 373.177 1570.23 375.527C1583.09 385.873 1597.45 398.898 1602.78 403.636C1604.89 405.504 1607.62 407.279 1612 411.22C1644.37 440.088 1680.18 476.971 1714.12 507.82C1731.97 524.14 1760.49 547.354 1784.46 559.618C1813.37 575.267 1846.94 582.545 1880.64 580.152L1880.65 580.152C1923.77 578.357 1961.78 558.71 1993.97 535.78C2055.52 489.937 2124.37 446.772 2200.05 425.115C2229.64 416.065 2259.85 409.178 2290.38 404.492C2263.41 408.106 2231.5 414.767 2199.84 424.386C2171.84 432.826 2144.47 443.413 2120.1 455.019C2034.57 490.197 1971.71 576.341 1880.59 579.046L1880.58 579.047C1807.62 586.524 1746.43 538.475 1694.76 488.103C1653.58 448.517 1601.59 396.956 1551.09 358.167C1548.81 356.389 1543.76 352.984 1538.87 349.281C1537.89 348.498 1524.87 338.114 1520.44 335.024C1524.1 339.048 1506.76 325.564 1501.27 322.023C1494.21 317.329 1479.18 308.172 1462.32 297.734C1447.07 288.368 1451.45 290.495 1450.64 289.964C1448.72 288.787 1447.18 287.966 1445.81 287.293C1443.57 286.219 1441.5 285.425 1438.68 283.888C1421.84 273.432 1330.69 227.545 1303.63 217.956C1296.87 215.212 1296.83 214.711 1295.3 214.095C1291.22 212.475 1285.12 210.595 1278.6 208.141C1266.62 203.609 1253.02 198.405 1246.34 196.177C1230.47 190.724 1199.89 182.042 1178.67 176.917C1172.71 175.448 1173.18 175.073 1170.46 174.425C1158.66 171.466 1127.14 165.7 1112.12 163.587C1087.7 159.832 1062.31 156.982 1037.06 156.314C1035.47 156.043 1033.88 155.779 1032.29 155.521C1029.76 155.687 1027.22 155.87 1024.69 156.07C981.952 155.371 938.232 160.425 896.765 171.063C894.057 171.744 885.241 173.941 877.435 176.225C871.454 177.955 866.147 179.662 864.477 180.231C861.258 181.329 858.282 182.936 853.574 184.592C846.974 186.973 852.869 183.561 842.167 188.099C839.307 189.348 842.252 188.599 836.538 191.121C834.466 191.55 798.605 208.98 796.942 210.357C793.793 212.008 790.599 212.731 789.768 213.179C785.52 215.473 786.061 216.005 783.311 217.691C775.182 222.654 764.604 228.939 763.311 229.828C747.575 240.008 720.426 261.643 705.747 274.515C703.699 276.265 703.588 275.652 703.222 275.954C700.871 277.907 699.873 279.635 697.746 281.602C686.203 292.151 668.694 309.212 658.095 320.761C656.865 322.084 654.531 325.088 652.361 327.475C640.166 341.019 643.78 336.318 643.063 337.07C641.424 338.896 639.005 342.501 634.865 347.512C624.036 360.417 604.375 385.785 593.927 400.376C586.051 411.269 585.748 410.772 585.218 411.48C584.125 412.997 581.494 417.538 576.518 424.866C567.013 438.954 567.816 437.031 563.905 442.893C563.583 443.382 564.512 442.789 560.275 449.273C552.124 461.65 533.631 489.767 525.25 503.191C522.049 508.291 521.598 509.838 518.27 515.15C513.03 523.533 500.671 542.255 499.751 543.681C499.49 544.093 499.329 545.295 497.793 547.71C496.136 550.316 494.151 552.94 492.873 554.937C485.637 566.353 473.482 586.18 475.552 579.796C473.515 583.651 471.607 587.273 469.466 591.186C453.487 614.214 437.397 636.284 418.221 655.191C413.829 659.475 410.117 662.317 406.108 665.624C402.439 669.259 384.784 681.209 381.225 682.199C378.415 683.54 368.73 687.575 358.897 688.637C348.967 689.935 339.394 688.304 337.108 687.826C337.019 687.809 336.93 687.791 336.841 687.773C328.454 686.131 321.505 682.309 318.449 680.921C315.979 679.775 317.986 681.406 313.369 678.922C305.192 674.794 294.106 663.102 292.292 660.794C291.515 659.812 292.598 662.064 285.195 652.822C281.258 647.708 279.649 644.598 278.323 642.652C277.981 642.044 277.806 643.309 271.13 632.272C266.503 624.415 265.145 620.812 264.644 619.937C263.916 618.6 261.888 615.933 259.193 610.738C252.894 598.743 242.635 575.818 237.123 563.878C236.058 561.581 235.914 562.667 231.632 553.367C228.643 546.873 229.581 547.778 228.45 545.313C226.613 541.322 223.436 535.873 219.335 527.178C214.792 515.955 174.337 436.373 171.367 432.569C169.917 429.824 168.1 426.676 167.533 425.199C168.415 426.229 169.294 427.258 170.168 428.285C176.242 440.597 174.303 435.281 176.155 438.412C178.951 443.099 188.27 460.472 190.718 464.732C191.579 466.204 190.242 462.516 194.719 470.486C199.537 479.118 200.72 483.544 203.594 486.419C208.679 499.632 215.829 510.969 209.067 496.288C205.966 487.8 163.785 409.017 153.241 394.072C145.444 381.39 129.835 358.628 119.184 343.792C113.135 335.083 97.1117 313.981 98.3359 314.56C92.5878 307.053 98.2194 315.359 96.9238 313.852C94.2976 310.608 76.0636 287.361 72.2672 283.09C65.6787 275.353 58.5334 267.332 50.7655 258.879L50.7185 258.827C37.3829 244.434 23.197 229.935 11.4221 217.585C12.4372 218.332 13.4513 219.082 14.4644 219.833C19.0511 223.774 38.1725 244.199 40.8989 245.969C12.8745 216.137 -16.867 187.914 -48.161 161.526C-47.8806 162.362 -87.397 130.55 -89.2993 129.074C-88.3739 129.329 -87.4481 129.586 -86.5228 129.844C-64.6683 148.487 -65.659 145.606 -51.3914 158.602C-45.3921 163.654 -46.8291 161.685 -43.8069 164.101C-13.998 188.489 -44.0175 165.289 -21.6383 184.438C-27.6524 177.858 -9.50344 193.773 -1.62894 201.2C0.263255 202.792 23.1965 225.595 25.8019 228.416C33.2449 235.939 43.2259 246.2 52.9493 256.777L53.0054 256.839C63.2633 268.078 72.7992 279.199 79.7173 287.904C90.319 300.799 96.7865 307.992 106.118 319.955C113.325 329.294 110.918 326.851 114.195 331.261C120.92 340.41 124.282 342.917 127.045 349.976C131.688 356.181 136.309 362.518 140.855 368.914C140.621 369.072 140.387 369.231 140.154 369.389C142.896 373.494 145.476 377.417 148.207 381.64C149.235 382.712 150.259 383.782 151.277 384.851C159.309 398.209 155.209 393.066 156.084 395.945C157.767 398.745 159.546 401.734 161.25 404.634C163.133 406.543 165.001 408.448 166.856 410.349C174.499 423.194 181.925 436.323 189.03 449.484C189.243 450.463 189.453 451.44 189.661 452.415C189.922 452.307 190.183 452.198 190.444 452.09C202.584 474.397 213.93 497.055 224.796 519.739C228.167 525.62 210.917 489.141 209.381 486.304C202.07 470.837 179.838 431.154 180.513 430.687C174.742 421.771 158.235 394.017 153.55 385.268C161.631 398.029 169.452 411.023 177.056 424.303C177.1 423.707 177.143 423.111 177.186 422.514C185.36 439.484 186.82 441.964 197.125 458.471C196.738 458.701 196.35 458.932 195.962 459.162C203.691 470.233 212.054 492.851 214.075 492.64C217.134 499.162 220.101 505.61 223.088 512.183C229.839 525.873 221.251 503.847 246.122 558.427C247.83 562.173 246.955 561.473 249.668 567.165C250.468 568.776 255.356 577.792 263.783 594.951C265.106 597.619 264.826 598.015 266.152 600.74C269.279 607.282 276.677 618.966 272.427 614.077C285.696 638.278 281.074 627.49 285.846 634.407C289.134 638.82 287.809 638.314 290.653 642C294.383 646.178 291.926 643.803 306.34 659.212C304.637 657.688 302.891 655.996 301.234 654.278C301.858 655.286 302.573 656.363 303.254 657.37C312.205 665.231 311.042 664.684 316.058 666.819C322.371 671.607 328.368 674.748 339.029 676.824C339.143 676.845 339.264 676.866 339.385 676.888C350.143 678.529 352.374 677.368 355.278 677.172C358.132 676.613 361.176 677.269 373.102 673.904C376.709 672.233 380.525 670.078 383.949 667.797C390.216 664.564 385.813 668.395 394.838 662.214C387.159 666.388 406.171 652.49 408.107 648.366C408.614 648.272 409.122 648.174 409.632 648.073C411.499 646.281 413.499 644.283 415.266 642.455C415.111 642.292 414.955 642.13 414.8 641.968C417.301 639.624 419.824 637.151 422.364 634.556C424.013 632.375 425.691 630.098 427.205 627.965C430.392 624.927 433.611 621.721 436.856 618.361C438.735 616.027 440.376 613.953 442.146 611.676C441.335 612.191 440.526 612.701 439.718 613.203C442.01 610.402 444.314 607.519 446.63 604.558C443.561 607.758 444.844 605.095 451.525 595.784C457.015 587.985 451.802 597.62 463.203 580.142C463.965 578.91 464.745 576.52 475.514 559.798C488.26 539.793 482.527 549.723 484.844 546.168C485.341 545.398 488.847 539.138 492.46 533.31C494.51 530.006 496.812 526.975 497.089 526.534C498.362 524.484 498.386 523.565 500.115 520.786C504.509 513.724 510.883 503.998 515.266 496.996C517.263 493.807 518.932 490.641 519.836 489.205C521.238 486.979 523.39 484.373 524.828 482.105C530.092 473.773 536.958 460.489 541.153 457.638C544.747 448.733 557.644 433.269 555.851 433.811C569.836 412.675 609.66 356.781 610.403 359.859C618.093 347.357 618.329 349.178 622.178 344.414C626.53 339.102 624.005 341.62 627.507 337.456C635.707 327.757 643.909 318.654 652.547 309.352C651.392 311.006 650.245 312.662 649.108 314.321C658.214 304.586 654.583 307.487 663.969 297.553C681.475 279.554 674.465 287.495 677.581 285.39C676.265 285.472 698.071 265.31 700.557 263.525C701.981 262.405 696.493 268.186 710.209 256.156C709.268 256.579 708.322 257.01 707.38 257.441C713.861 252.278 731.405 237.968 734.638 235.841C736.085 234.815 744.942 231.107 751.108 224.778C752.128 224.422 753.149 224.069 754.171 223.719C761.997 218.064 769.856 212.72 778.03 207.53C779.611 207.186 781.192 206.85 782.775 206.522C785.44 204.992 788.076 203.514 790.734 202.058C788.755 202.633 786.795 203.212 784.81 203.821C801.138 194.65 821.992 184.34 826.107 184.27C829.687 182.395 833.31 180.561 836.976 178.77C839.605 178.243 842.29 177.72 844.883 177.259C862.078 170.669 862.448 170.367 874.424 166.022C874.477 166.003 874.533 165.983 874.589 165.964C874.545 166.025 874.502 166.086 874.459 166.148C874.132 166.609 873.805 167.072 873.479 167.535C873.882 167.384 874.3 167.23 874.734 167.071C883.825 163.698 899.345 159.049 912.029 156.321C918.302 154.906 929.273 153.456 930.758 153.174C932.247 152.804 946.83 148.424 948.714 150.089C970.604 146.442 980.431 146.88 989.335 146.317C995.129 146.007 997.787 145.452 1004.35 145.227C1013.73 144.914 1023.18 145.186 1028.58 145.259C1031.67 145.298 1032.27 144.884 1034.4 144.927C1044.46 145.194 1038.56 145.394 1049.16 145.869C1050.15 145.916 1057.9 145.791 1066.62 146.573C1071.51 146.969 1083.96 148.824 1085.06 148.97C1089.95 149.542 1086.25 147.78 1102.73 151.332C1102.28 151.043 1101.83 150.755 1101.38 150.466C1122.11 152.791 1125.11 154.574 1129.22 155.314C1129.75 155.41 1134.82 155.922 1137.78 156.54C1142.79 157.579 1144.69 158.511 1145.79 158.752C1149.62 159.576 1162.9 162.138 1171.21 164.651C1169.82 162.654 1199.72 169.57 1205.74 173.207C1211.01 174.336 1216.31 175.525 1221.62 176.766C1223.88 177.742 1226.14 178.724 1228.38 179.713C1229.87 179.882 1231.37 180.054 1232.86 180.229C1240.26 183.208 1247.48 186.235 1254.71 189.369C1255.4 188.947 1256.08 188.525 1256.76 188.103C1258.84 188.893 1260.9 189.686 1262.95 190.484C1264.41 191.519 1265.85 192.556 1267.29 193.594C1269.88 194.422 1272.49 195.269 1275.14 196.141C1275.91 196.043 1276.67 195.945 1277.44 195.849C1291.41 200.69 1283.19 200.975 1310.35 208.669C1314.34 210.606 1318.27 212.547 1322.13 214.487C1327.22 215.148 1335.44 219.604 1342.27 222.497C1347.17 224.578 1347.16 223.969 1353.61 226.912C1360.08 229.883 1359.72 230.31 1360.21 230.537C1365.59 233.091 1369.46 234.436 1373.47 236.476C1374.05 236.772 1375.3 238.054 1380.13 240.469C1384.77 242.804 1388.44 243.883 1395.41 247.568C1399.06 249.503 1400.03 250.589 1403.25 252.313C1418.81 260.635 1435.43 266.808 1445.42 276.072C1446.22 276.4 1448.37 277.406 1450.81 278.553L1450.8 278.547C1458.14 282.058 1469.77 288.101 1475.48 291.671C1487.85 299.423 1482.7 297.002 1487.51 300.144C1488.22 300.628 1491.92 302.645 1502.18 309.432C1503.99 310.636 1503.76 310.07 1504.03 310.238C1515.65 317.828 1538.25 334.133 1550.36 343.495C1551.4 344.295 1558 348.033 1566.71 356.586C1581.75 367.118 1606.49 390.791 1625 405.855C1627.46 408.054 1630.12 410.966 1631.24 411.987C1640.59 420.533 1638.01 416.529 1657.44 437.164C1656.12 435.166 1661.35 439.492 1667.96 445.923C1678 455.713 1670.19 449.545 1678.28 457.262C1678.47 457.059 1678.67 456.856 1678.86 456.654C1696.85 475.072 1701.28 477.864 1719.87 495.038C1726.51 501.169 1736.15 510.376 1737.75 511.697C1738.4 512.278 1746.31 517.972 1747.01 518.499C1751.07 521.746 1753.21 523.815 1756.72 526.475C1768.4 535.519 1783.34 543.413 1779.92 543.196C1783.47 544.948 1786.99 546.558 1790.56 548.073C1802.69 556.472 1813.74 557.71 1815.98 560.234C1818.52 560.731 1821.06 561.164 1823.58 561.526C1841.58 566.749 1860.54 568.525 1879.96 567.339L1879.98 567.337C1923.84 565.67 1961.03 544.749 2000.13 516.273C2002 514.288 2027.23 496.523 2028.69 495.703C2035.04 491.779 2029.1 497.202 2041.52 488.467C2042.61 487.121 2043.71 485.78 2044.83 484.43C2060.76 473.831 2053.3 479.33 2059.9 475.536C2062.58 473.79 2061.46 474.019 2065.09 471.76C2084.66 459.007 2127.49 437.447 2151.35 428.602C2156.08 426.746 2155.51 427.374 2156.99 426.804C2161.18 425.199 2168.91 421.829 2177.34 418.963C2183.41 416.894 2189.61 414.885 2196.4 412.807C2245.85 397.192 2310.45 386.641 2358.07 384.734C2361.75 384.556 2362.22 384.978 2364.69 384.88C2368.1 384.736 2375.75 384.092 2379.37 384.042C2382.78 383.985 2384.93 384.274 2388.57 384.258C2405.19 384.152 2427.58 384.09 2445.17 386.208C2446.72 386.329 2464.99 389.494 2465.41 389.7C2467.76 390.637 2451.37 390.132 2478.06 393.719C2454.02 392.385 2461.45 394.237 2492.25 398.56C2476.71 396.849 2461.2 395.594 2445.57 394.81C2445.54 394.994 2445.5 395.177 2445.46 395.36C2459.59 397.194 2473.55 398.61 2494.9 401.363C2494.22 401.449 2493.54 401.536 2492.85 401.624C2473.86 400.071 2451.05 398.379 2436.5 398.858C2457.61 400.799 2478.61 403.64 2499.4 407.282C2498.34 407.277 2497.27 407.273 2496.2 407.271C2486.1 406.236 2464.17 404.221 2455.75 403.98C2423.72 402.858 2483.56 407.159 2473.67 407.275C2440.11 403.862 2406.21 402.642 2372.47 403.881C2371.44 401.779 2500.93 409.997 2499.03 413.997C2488.56 412.708 2478.05 411.624 2467.53 410.756C2472.17 411.621 2476.75 412.523 2481.42 413.476C2480.12 413.467 2478.8 413.461 2477.49 413.458C2459.83 411.911 2442.06 410.964 2424.29 410.671C2478.24 412.599 2503.09 417.682 2515.22 422.739C2513.78 422.604 2512.34 422.47 2510.88 422.338C2499.76 418.121 2444.87 412.635 2415.59 412.956C2421.54 413.59 2447.26 414.39 2452.62 415.281C2454.15 415.5 2448.77 415.538 2452.3 416.017C2461.63 416.979 2500.84 422.304 2495.05 422.413C2491.35 421.762 2427.89 416.821 2415.45 417.256C2444.51 418.732 2474.35 421.518 2503.04 426.579C2484.62 425.48 2468.35 424.924 2435.02 423.143C2424.91 422.744 2495.1 429.581 2496.59 430.982C2484.44 429.781 2472.26 428.86 2460.08 428.24C2470.34 429.006 2480.62 429.988 2490.86 431.171C2490.87 431.315 2490.88 431.458 2490.89 431.602C2464.34 428.953 2439.91 428.143 2409.52 427.529C2410.48 428.245 2428.67 428.632 2437.48 429.194ZM72.6601 276.87C72.7183 275.969 80.3237 285.08 84.4482 290.143C83.9087 289.31 83.3667 288.477 82.8223 287.643C91.6451 298.308 107.606 319.318 109.094 319.393C115.332 327.399 111.782 324.448 113.64 327.124C114.388 328.191 122.583 338.228 128.093 347.353C129.533 349.389 130.959 351.42 132.37 353.447C132.965 353.612 133.56 353.778 134.154 353.944C135.696 357.012 137.315 360.224 138.879 363.388C118.447 333.332 96.3023 304.429 72.6957 276.911C72.6839 276.898 72.672 276.884 72.6601 276.87ZM257.23 584.206C262.503 595.827 271.128 612.974 270.279 609.004C266.509 602.017 262.93 595.01 259.336 587.775C258.637 586.597 257.935 585.407 257.23 584.206ZM1252.91 189.819C1263.07 194.425 1272.98 196.934 1288.72 203.17C1288.78 202.953 1288.85 202.735 1288.91 202.518C1282.32 200.53 1265.14 193.777 1252.91 189.819ZM-177.943 69.3871C-179.966 68.0601 -181.993 66.7403 -184.026 65.4278C-174.972 69.4629 -173.901 71.1036 -164.408 76.9038C-163.836 77.2548 -163.886 76.897 -163.687 77.0202C-161.372 78.4557 -159.425 80.0874 -157.351 81.4092C-153.353 83.9636 -149.916 85.7685 -142.914 90.4225C-137.509 94.0325 -137.763 94.5188 -135.862 95.7832C-134.234 96.8329 -117.486 106.548 -107.828 114.395C-89.0773 128.69 -171.169 72.1767 -177.943 69.3871ZM-238.439 34.2763C-236.361 35.3443 -234.288 36.4195 -232.218 37.5017C-238.82 34.9698 -226.19 41.3908 -217.081 46.392C-217.72 46.883 -236.911 36.1766 -245.823 32C-243.36 32.7487 -240.899 33.5075 -238.439 34.2763ZM-0.365847 206.727C-7.02158 200.494 -5.26792 200.846 -4.78819 200.89C-2.67507 202.884 -0.569386 204.887 1.52873 206.899C0.897032 206.841 0.2655 206.783 -0.365847 206.727ZM-51.65 161.239C-49.0316 162.517 -33.783 175.17 -26.7782 181.421C-26.4743 181.695 -28.6312 180.243 -23.6679 184.65C-22.1518 185.934 -6.82978 198.257 -11.0268 196.439C-24.2617 184.365 -37.8008 172.631 -51.6294 161.256C-51.6363 161.25 -51.6431 161.244 -51.65 161.239ZM-66.8413 148.239C-63.808 150.417 -60.7821 152.616 -57.7717 154.828C-56.4811 156.295 -55.1949 157.765 -53.9132 159.239C-57.2237 156.581 -60.5464 153.947 -63.8891 151.33C-64.871 150.298 -65.855 149.267 -66.8413 148.239ZM2037.53 499.28C2036.62 499.499 2035.74 499.711 2034.81 499.948C2031.83 501.731 2019.29 512.352 2023.69 509.589C2028.31 506.097 2032.84 502.71 2037.53 499.28ZM2097.65 463.162C2100.79 461.675 2103.87 460.259 2107.06 458.821C2110.44 456.474 2113.67 454.252 2117.04 452.008C2101.22 459.12 2084.92 467.892 2088.34 467.858C2084.92 469.769 2081.38 471.798 2078.02 473.774C2080.52 471.539 2080.1 471.44 2070.9 476.458C2069.44 478.446 2060.04 483.589 2049.94 490.525C2057.45 485.636 2064.96 480.947 2072.64 476.392C2072.72 476.536 2072.81 476.68 2072.89 476.824C2055.98 487.141 2077.37 475.013 2088.46 468.181C2089.44 467.885 2090.44 467.59 2091.43 467.296C2093.47 465.916 2095.55 464.538 2097.65 463.162ZM863.762 177.4C866.169 176.761 868.587 176.14 871.016 175.539C879.635 170.535 861.306 178.302 847.877 181.7C852.654 181.208 832.758 189.034 831.745 189.712C834.164 189.155 836.59 188.617 839.022 188.099C847.296 184.223 855.335 180.737 863.762 177.4ZM932.107 161.658C923.464 161.81 964.99 155.244 979.082 154.997C982.498 154.796 988.593 155.034 991.039 154.842C992.514 154.544 994.007 154.252 995.493 153.966C997.293 154.514 1024.64 153.124 1035.42 153.237C1036.42 153.548 1037.42 153.862 1038.42 154.178C1042.36 154.206 1046.28 154.272 1050.21 154.378C1049.7 154.63 1049.19 154.882 1048.68 155.136C1051.66 154.956 1054.64 154.798 1057.62 154.662C1069.26 155.133 1061.98 156.11 1070.72 156.368C1080.45 156.723 1064.69 154.378 1065.01 153.85C1057.13 153.307 1039.12 152.711 1031.11 152.619C1026.5 152.588 1031.75 151.384 1011.82 152.68C1007.46 152.448 1003.09 152.267 998.704 152.141C990.662 152.882 982.709 153.799 974.725 154.908C973.202 154.64 971.676 154.379 970.146 154.125C969.272 154.056 950.88 157.02 951.907 157.26C944.334 157.465 928.942 159.569 912.956 162.998C911.459 163.538 909.965 164.085 908.473 164.64C923.831 160.834 913.434 163.79 918.114 163.217C920.8 162.89 929.059 161.802 932.107 161.658ZM1950.4 557.727C1971.42 545.423 1958.61 553.766 1981.35 539.456C1979.51 540.064 1977.64 540.677 1975.8 541.26C1965.25 549.438 1946.14 558.401 1950.38 557.738C1950.38 557.734 1950.39 557.73 1950.4 557.727ZM2188.74 423.107C2174.74 428.095 2181.78 426.411 2164.05 433.121C2164.04 433.124 2164.04 433.127 2164.03 433.13C2173.23 429.756 2182.73 426.544 2192.04 423.635C2190.94 423.457 2189.84 423.281 2188.74 423.107ZM1477.06 302.119C1464.84 294.36 1467.26 296.299 1456.46 289.026C1439.12 280.144 1453.49 288.245 1453.04 288.996C1457.01 290.994 1460.92 293.002 1464.79 295.02C1473.4 301.145 1464.64 296.346 1464.59 296.416C1464.6 296.42 1464.61 296.425 1464.62 296.429C1464.48 296.653 1464.17 296.524 1467.54 298.739C1470.69 299.831 1473.9 300.984 1477.06 302.119ZM1423.86 272.568C1428.58 274.512 1430.52 274.696 1419.72 268.385C1419.71 268.38 1419.7 268.376 1419.7 268.372C1418.06 268.939 1407.88 262.286 1402.8 259.751C1401.46 259.212 1400.11 258.666 1398.74 258.114C1406.94 262.709 1415.73 267.753 1423.86 272.568ZM1226.97 189.009C1227.34 187.636 1237.64 190.694 1223.6 184.962C1220.77 184.125 1217.93 183.298 1215.07 182.482C1213.11 182.23 1211.13 181.979 1209.21 181.751C1173.73 169.514 1161.92 170.24 1223.24 186.094C1223.25 186.095 1223.26 186.097 1223.27 186.099C1224.51 187.067 1225.74 188.038 1226.97 189.009ZM1289 210.588C1289.72 210.065 1290.44 209.542 1291.16 209.02C1298.19 213.705 1308.79 216.043 1323.06 223.531C1324.51 223.905 1325.95 224.28 1327.39 224.655C1332.79 227.082 1386.4 252.691 1375.24 246.181C1370.39 243.225 1359.13 238.627 1358.16 238.169C1354.91 236.584 1350.97 234.039 1345.53 231.605C1342.35 230.183 1335.3 227.841 1328.85 225.041C1314.34 218.647 1288.21 205.846 1267.8 200.605C1266.48 199.887 1265.15 199.171 1263.81 198.457C1249.14 193.452 1253.74 195.787 1240.37 190.447C1229.89 190.295 1295.16 209.538 1280.77 207.566C1280.78 207.569 1280.79 207.572 1280.8 207.575C1283.54 208.569 1286.2 209.543 1289 210.588ZM1645.79 436.807C1646 437.868 1659.57 449.508 1655.48 447.712C1660.03 451.348 1664.52 454.949 1669.09 458.627C1669.16 458.494 1669.23 458.361 1669.29 458.228C1665.04 454.268 1660.87 450.391 1656.63 446.473C1656.77 446.294 1656.91 446.116 1657.05 445.937C1650.31 440.468 1624.39 415.681 1625.58 415.801C1623.93 414.743 1622.31 413.718 1620.67 412.674C1608.45 400.299 1596.74 391.263 1582.82 378.429C1581.51 377.7 1580.17 376.95 1578.9 376.258C1578.32 375.485 1577.73 374.711 1577.15 373.936C1571.94 369.604 1566.43 365.128 1561.13 360.908C1543 347.801 1576.49 375.664 1580.38 379.042C1580.94 379.481 1581.24 378.962 1584.67 381.727C1590.83 386.415 1622.99 415.681 1632.91 424.701C1632.73 425.063 1632.55 425.426 1632.37 425.788C1636.8 429.379 1641.36 433.138 1645.79 436.807ZM1146.51 166.675C1145.62 166.093 1144.74 165.513 1143.85 164.934C1126.99 161.994 1116.38 160.088 1120.49 162.049C1120.5 162.051 1120.51 162.052 1120.52 162.054C1129.16 163.426 1137.93 164.99 1146.51 166.675ZM224.624 529.619C224.121 530.385 227.245 537.684 232.181 546.928C232.175 546.379 232.169 545.829 232.162 545.278C229.233 540.606 227.504 534.084 220.115 518.946C219.761 519.118 219.408 519.291 219.054 519.464C220.866 522.735 222.788 526.258 224.624 529.619ZM1160.89 169.915C1165.84 171.459 1180.4 173.521 1171.04 171.208C1163.92 169.468 1158.22 169.072 1160.89 169.915ZM2246.13 408.119C2242.34 408.896 2238.54 409.709 2234.73 410.563C2232.83 411.372 2230.96 412.184 2229.08 413.01C2229.09 413.007 2229.1 413.005 2229.11 413.003C2234.73 411.307 2240.47 409.663 2246.13 408.119ZM1517.8 328.868C1506.93 321.339 1496.19 314.247 1485.16 307.299C1484.93 307.415 1484.71 307.531 1484.48 307.646C1495.81 313.905 1499.86 317.709 1502.31 319.394C1502.3 319.387 1502.29 319.379 1502.28 319.372C1510.15 324.84 1517.97 330.413 1525.21 335.914C1522.77 333.566 1520.31 331.217 1517.8 328.868ZM1552.94 356.426C1552.12 353.889 1550.03 351.822 1533.29 340.847C1533.82 341.472 1534.35 342.096 1534.88 342.721C1543.32 348.789 1548.2 352.117 1546.3 351.675C1548.53 353.258 1550.74 354.842 1552.94 356.426ZM1380.12 249.432C1382.25 250.994 1399.24 259.102 1398.5 258.47C1398.12 258.093 1376.45 246.49 1380.12 249.432ZM156.535 402.437C158.771 406.283 160.958 410.105 163.098 413.903C159.991 409.032 156.747 404.033 153.53 399.177C154.514 400.229 155.527 401.334 156.535 402.437ZM128.445 363.248C126.814 360.559 133.767 368.083 123.436 352.63C131.187 363.593 138.912 375.025 146.294 386.463C142.575 381.092 138.994 376.046 135.234 370.841C135.526 371.991 135.813 373.14 136.097 374.286C133.595 370.624 131.045 366.944 128.445 363.248ZM120.979 350.755C124.418 357.236 101.833 326.188 99.4802 323.232C99.0171 322.573 97.3737 319.119 96.6531 317.911C100.132 322.403 103.772 327.192 107.242 331.847C106.277 330.131 105.303 328.412 104.318 326.688C108.541 332.141 112.604 337.501 116.652 342.959C114.715 340.709 112.853 338.584 110.925 336.391C114.261 341.067 117.662 345.922 120.979 350.755ZM200.57 483.224C198.415 478.924 196.103 474.378 193.94 470.181C194.038 471.218 194.133 472.254 194.226 473.287C195.571 475.875 196.933 478.52 198.257 481.111C199.03 481.817 199.801 482.521 200.57 483.224ZM151.452 396.963C156.782 401.863 163.453 420.8 152.851 400.559C151.801 398.57 150.944 396.497 151.452 396.963ZM90.8666 311.763C80.288 300.692 84.8659 301.474 93.0645 313.303C93.4701 313.897 91.6523 312.593 90.8666 311.763ZM15.4034 226.882C14.539 226.016 13.7543 223.754 4.73607 216.248C3.43207 214.819 2.1243 213.394 0.812737 211.972C4.51641 214.639 31.9 241.972 27.3955 238.894C23.2761 234.651 19.6974 231.237 15.4034 226.882ZM38.6774 256.351C40.9496 258.774 43.2116 261.209 45.4633 263.656L45.4888 263.684C47.174 265.532 48.8448 267.379 50.5013 269.223C49.454 267.58 48.397 265.934 47.33 264.285C49.3266 266.377 51.3042 268.467 53.2633 270.554C56.1056 274.574 58.8871 278.579 61.6092 282.569C56.2573 276.423 50.7495 270.252 45.0793 264.057L45.0554 264.031C42.13 260.865 39.1889 257.72 36.2277 254.593C37.0456 255.178 37.8617 255.764 38.6774 256.351ZM133.113 377.727C127.241 368.194 119.295 357.235 108.639 342.51C108.635 342.502 108.631 342.495 108.626 342.487C108.104 341.765 107.515 340.235 105.811 337.899C104.617 335.727 73.9576 297.437 76.8426 300.222C89.2748 314.458 92.7575 320.783 96.746 323.304C97.0277 324.227 97.3228 325.17 97.624 326.123C108.267 341.142 111.99 344.444 118.378 352.654C118.148 352.77 117.917 352.885 117.687 353.001C121.639 358.626 125.37 364.058 129.263 369.854C128.858 368.957 128.45 368.058 128.04 367.158C129.415 369.177 130.776 371.191 132.122 373.199C134.779 378.518 138.661 384.761 133.113 377.727ZM20.8973 237.066C15.9771 234.414 -20.277 197.045 -38.6972 181.943C-28.5233 189.275 -14.7691 202.937 -4.97105 212.382C13.9205 230.714 1.3495 217.541 4.77423 220.426C6.47861 221.847 16.1877 233.266 20.8973 237.066ZM155.181 411.893C148.365 400.384 144.259 394.73 138.539 384.601C139.185 385.335 139.828 386.067 140.47 386.799C142.652 390.158 158.926 417.345 155.181 411.893ZM-64.9426 159.02C-45.8829 175.738 -54.373 166.418 -45.1885 175.965C-51.8114 170.363 -58.505 164.844 -65.2631 159.412C-65.1562 159.281 -65.0494 159.151 -64.9426 159.02ZM1187.48 183.846C1197.9 186.607 1209.13 190.204 1215.55 191.371C1208.55 189.161 1201.7 187.092 1194.67 185.068C1192.28 184.652 1189.85 184.235 1187.48 183.846ZM886.408 185.639C888.79 185.096 897.933 182.089 898.917 181.862C900.736 181.396 900.299 181.771 900.341 181.828C912.291 178.837 901.059 180.752 909.919 178.482C911.424 177.996 932.491 174.038 941.119 172.813C954.344 170.665 967.683 169.392 972.665 168.953C981.089 168.149 996.721 166.567 1010.62 166.384C1016.33 166.303 1018.35 166.773 1024.1 166.811C1061.09 166.026 1133.46 175.677 1165.04 184.257C1172.91 186.164 1180.24 188.664 1184.36 189.683C1187.63 190.301 1191.01 190.966 1194.32 191.635C1203.76 196.352 1207.55 195.55 1218.34 198.61C1225.15 200.563 1228.08 202.151 1229.02 202.443C1235.08 204.367 1238.12 205.072 1242.81 206.592C1248.06 208.29 1255.63 211.228 1257.49 211.84C1258.68 212.269 1255.15 209.977 1275.55 217.57C1296.18 225.358 1316.23 233.759 1336.64 242.992C1330.61 237.625 1324.37 236.684 1315.73 233.099C1313.5 232.177 1315.06 232.422 1313.11 231.616C1307.62 229.33 1296.63 225.256 1292.1 223.377C1287.11 221.304 1289.18 221.145 1282.6 218.954C1282.27 218.848 1283.15 219.578 1281.64 219.066C1266.39 213.94 1261.62 211.448 1242.22 204.85C1229.68 199.497 1149.92 178.857 1146.93 179.023C1132.95 174.006 1217.44 194.372 1226.78 198.696C1230.16 199.802 1226.47 199.061 1229.56 200.121C1230.93 200.585 1242.78 203.554 1254.44 207.576C1268.37 212.242 1295.89 223.394 1308.87 228.89C1354.78 247.921 1398.91 270.179 1441.57 294.733C1503.12 329.648 1559.56 372.261 1611.96 420.246C1613.85 421.975 1616.62 423.853 1622.82 429.603C1697.92 495.888 1769.55 597.07 1881 586.938C1935.12 585.322 1981.51 554.041 2024.32 522.494C2052.47 502.226 2081.32 482.643 2112.97 467.144C2116.81 464.826 2120.42 462.683 2124.31 460.468C2114.36 465.345 2095.75 474.438 2094.2 475.375C2093.64 475.687 2090.05 478.086 2084.14 481.514C2075.85 486.337 2072.07 488.357 2071.42 488.744C2069.37 490.018 2070.91 489.472 2068.9 490.723C2054.11 499.994 2043.08 507.73 2030.06 516.927C2015.38 527.34 2007.68 532.162 1997.4 540.154C1996.03 540.762 1994.67 541.362 1993.3 541.953C1986.47 549.25 1936.62 578.433 1913.31 581.275C1906.22 582.835 1907.4 582.005 1905 582.478C1903.43 582.606 1904.28 583.841 1885.36 585.588C1883.71 585.712 1882.25 585.79 1880.95 585.839C1874.68 586.062 1872.32 585.759 1868.42 585.804C1865.89 585.809 1866.24 586.294 1862.48 586.21C1840.91 585.512 1823.49 581.923 1803.85 574.462C1798.35 572.299 1798.47 571.846 1797.25 571.348C1792.78 569.444 1784.71 566.587 1773.95 560.329C1755.81 550.542 1723.88 524.367 1711.73 512.518C1709.93 510.823 1708.71 509.082 1707.35 507.841C1705.28 505.962 1704.14 505.566 1703.77 505.232C1697.02 498.965 1701.39 502.42 1696.78 498.243C1694.27 495.961 1691.35 493.976 1685.67 488.631C1678.09 481.479 1680.08 482.459 1676.93 479.516C1676.59 479.206 1676.19 479.454 1673.11 476.507C1661.54 465.378 1644.59 449.099 1633.51 438.669C1630.24 435.586 1628.2 433.237 1623.69 429.042C1615.03 420.228 1561.77 374.615 1556.89 371.277C1556.43 370.889 1561.69 374.191 1553.96 368.097C1551.53 366.544 1549.08 364.992 1546.61 363.441C1543.03 360.105 1539.43 356.802 1535.87 353.578C1535.16 354.862 1511.97 338.385 1513.06 337.329C1510.54 335.485 1508 333.644 1505.42 331.804C1499.47 329.089 1496.25 326.369 1485.24 320.003C1483.76 318.641 1482.36 317.341 1480.9 316.011C1480.37 315.94 1479.83 315.869 1479.3 315.798C1474.39 311.21 1464.21 306.433 1463.1 305.78C1458.77 303.196 1455.62 300.979 1453.54 299.771C1450.76 298.152 1446.77 295.903 1442.3 293.444C1434.45 289.105 1425.66 284.325 1419.56 280.841C1419.15 280.603 1419.83 280.381 1417.31 278.93C1412.72 276.298 1411.65 276.583 1405.94 272.515C1404.55 272.036 1403.15 271.548 1401.73 271.052C1400.35 270.194 1399.09 269.402 1397.82 268.606C1389.78 264.476 1381.68 260.426 1373.48 256.448C1381.09 259.239 1373.15 254.706 1364.58 251.351C1361.67 250.214 1363.93 251.896 1362.96 251.519C1361.92 250.944 1324.83 233.68 1322.48 232.497C1320.64 231.885 1318.75 231.262 1316.91 230.661C1316.16 229.975 1315.41 229.288 1314.65 228.601C1313.64 228.301 1312.62 228.001 1311.6 227.702C1301.95 222.9 1275.95 214.264 1271.25 212.507C1268.79 211.552 1271.41 210.912 1259.45 206.789C1258.89 207.014 1258.34 207.241 1257.79 207.467C1255.02 206.548 1252.23 205.637 1249.42 204.734C1244.21 202.901 1236.91 199.78 1236.79 199.251C1235.07 198.985 1233.34 198.723 1231.61 198.465C1227.51 196.104 1203.86 189.296 1194.13 187.365C1191.41 186.339 1188.64 185.316 1185.94 184.328C1182.1 183.679 1178.25 183.054 1174.38 182.454C1165.57 180.425 1174.99 182.126 1173.13 181.628C1169.15 180.481 1148.81 176.945 1150.35 176.12C1147.56 175.529 1144.81 174.961 1142.04 174.407C1140.55 174.454 1139.06 174.505 1137.57 174.56C1133.02 172.527 1124.71 171.255 1107.71 168.265C1106.23 168.317 1104.75 168.371 1103.28 168.433C1098.08 167.311 1092.84 166.248 1087.57 165.249C1086.43 165.56 1085.28 165.874 1084.14 166.191C1081.81 165.995 1079.52 165.814 1077.21 165.645C1072.63 164.173 1064.08 164.51 1059.81 163.805C1053.59 162.796 1058.48 162.314 1070.18 163.194C1069.4 162.177 1034.5 160.32 1026.45 160.557C1026.98 160.706 1027.51 160.855 1028.04 161.006C1036.26 161.038 1044.51 161.253 1052.72 161.637C1059.47 163.848 1037.22 162.013 1026.99 162.215C1026.06 162.235 1020.72 162.777 1010.43 162.848C1006.46 162.815 990.808 162.393 987.846 162.569C963.802 163.83 981.529 163.724 957.991 164.896C962.992 165.31 949.382 165.91 935.512 168.45C933.11 168.762 913.274 173.449 911.965 173.877C903.626 175.921 912.537 172.922 900.496 176.07C899.105 176.649 897.717 177.235 896.332 177.828C893.544 178.556 890.758 179.313 887.975 180.1C884.513 180.668 881.595 181.266 879.099 181.862C868.966 184.318 865.869 186.479 861.207 188.269C858.867 189.191 861.728 187.587 855.654 189.928C853.353 190.833 851.054 192.124 844.823 194.651C825.649 202.664 818.532 204.055 802.474 214.628C799.772 215.758 797.085 216.913 794.411 218.092C792.855 219.347 791.278 220.63 789.731 221.91C776.195 228.755 781.439 226.876 776.783 229.704C764.43 237.05 740.508 254.262 738.048 255.356C729.253 264.356 716.659 272.311 712.984 275.634C710.927 277.717 708.889 279.813 706.87 281.922C704.175 284.039 701.499 286.179 698.843 288.342C701.25 288.492 687.179 299.42 685.992 300.649C684.489 301.913 665.818 321.84 659.169 329.45C652.324 336.937 640.556 350.07 639.592 351.275C638.424 352.637 627.826 366.253 619.642 376.9C611.932 385.86 571.333 442.553 574.763 439.502C577.48 435.87 581.282 430.628 584.567 426.063C593.733 411.257 656.722 330.604 676.424 313.099C712.894 275.552 756.049 240.707 802.578 216.093C805.307 214.645 805.94 214.843 808.298 213.627C811.84 211.768 820.939 206.772 824.498 205.162C837.826 198.902 854.874 192.394 862.278 189.857C868.671 187.607 874.408 185.794 879.792 184.207C888.406 181.678 895.94 179.76 903.973 177.83C908.051 176.759 928.659 171.618 943.096 169.824C945.712 169.562 948.33 169.322 950.962 169.102C943.564 170.144 924.251 173.827 915.422 175.893C902.18 178.846 895.302 180.396 890.468 181.721C888.907 182.156 884.882 183.35 880.004 184.926C872.174 187.426 862.409 190.969 856.85 193.056C854.035 194.106 853.291 193.867 850.896 194.791C837.58 199.883 820.894 207.515 810.164 213.637C814.426 211.061 786.974 225.595 785.658 226.703C783.25 228.144 780.874 230.098 776.053 233.133C766.866 239.028 767.391 237.464 756.643 246.075C753.704 247.8 750.785 249.556 747.885 251.34C748.256 252.169 713.435 277.566 705.758 287.35C705.21 287.213 748.547 252.03 752.739 250.021C775.055 233.696 810.383 213.053 835.137 202.921C842.519 199.533 866.376 191.47 868.24 191.001C871.15 189.995 868.376 190.461 869.633 190.021C874.418 188.354 877.932 187.242 880.463 186.48C891.469 183.245 883.523 186.272 886.408 185.639ZM116.043 354.328C120.778 361.108 125.374 367.871 129.976 374.835C129.408 374.495 128.84 374.155 128.271 373.815C126.258 370.624 124.13 367.307 122.121 364.203C120.353 361.937 118.565 359.666 116.757 357.39C116.522 356.371 116.284 355.351 116.043 354.328ZM103.154 338.545C98.7786 332.892 99.0081 332.242 98.0334 330.895C95.068 326.827 92.3428 323.673 89.4243 319.91C93.8632 323.277 100.571 333.17 103.154 338.545ZM181.378 463.768C180.618 462.207 177.01 452.203 169.658 442.039C165.654 434.007 161.277 425.56 157.046 417.612C164.497 431.304 175.66 449.857 179.2 456.514C180.549 459.025 180.411 459.755 181.514 461.825C187.829 473.659 194.62 484.702 193.87 486.638C188.493 475.052 182.317 465.699 181.378 463.768ZM141.318 393.987C140.44 392.007 139.549 390.021 138.646 388.028C142.91 394.625 146.902 400.964 150.997 407.634C149.618 406.012 148.213 404.362 146.863 402.813C145.044 399.884 143.196 396.942 141.318 393.987ZM494.798 564.832C492.195 568.856 489.734 572.632 487.022 576.748C487.37 576.648 490.383 572.05 491.571 570.508C491.566 570.515 491.561 570.523 491.557 570.53C492.911 568.774 492.645 569.739 494.953 566.418C494.901 565.89 494.849 565.361 494.798 564.832ZM2130 458.918C2136.83 454.345 2206.37 429.385 2200.53 431.209C2197.19 431.665 2173.36 440.013 2166.41 442.778C2156.98 446.089 2131.4 456.084 2130 458.918ZM2254.3 418.119C2255.28 416.667 2210.41 427.792 2206.23 429.649C2207.18 429.49 2208.68 429.33 2209.92 429.031C2215.94 427.398 2244.48 419.822 2254.3 418.119ZM648.389 345.967C645.639 348.521 642.911 351.09 640.195 353.685C641.255 353.284 642.309 352.894 643.366 352.502C645.027 350.317 646.702 348.139 648.389 345.967ZM953.901 168.455C1015.48 160.63 1077.97 164.904 1138.47 176.718C1133.11 175.912 1127.68 175.155 1122.32 174.473C1070 165.273 1012.78 162.124 961.585 168.366C959.028 168.375 956.466 168.404 953.901 168.455ZM187.215 480.331C194.493 494.468 200.616 505.9 207.529 521.81C199.808 507.238 197.109 499.514 189.127 485.898C189.123 485.89 189.119 485.882 189.115 485.874C188.491 484.035 187.858 482.187 187.215 480.331ZM407.971 675.437C404.524 678.579 400.776 681.678 396.894 684.514C401.849 681.475 406.475 678.162 410.971 674.577C409.966 674.879 408.966 675.165 407.971 675.437ZM1462.46 309.926C1477.27 317.574 1511.4 342.309 1522.59 349.467C1523.33 349.929 1517.1 344.837 1528.09 351.809C1520.02 346.093 1514.46 342.42 1513.45 342.52C1511.23 340.676 1508.99 338.833 1506.72 336.99C1502.58 334.342 1498.65 331.878 1494.56 329.36C1495.35 329.098 1495.06 328.911 1488.63 325.227C1485.9 323.24 1483.09 321.222 1480.42 319.32C1479.08 318.799 1477.74 318.28 1476.4 317.763C1474.17 315.889 1471.91 314.017 1469.63 312.145C1459.66 306.522 1465.2 310.817 1462.46 309.926ZM1412.62 281.294C1413.56 281.861 1428.29 289.859 1440.5 296.605C1455.78 305.015 1467.81 311.839 1452.04 301.594C1448.46 299.522 1444.85 297.457 1441.19 295.401C1439.26 294.318 1437.09 293.098 1434.79 291.813C1432.81 290.705 1430.69 289.521 1428.42 288.268C1433.9 293.816 1413.44 280.201 1411.59 279.218C1403.25 274.447 1392.1 269.214 1385.75 265.961C1380.54 263.283 1377.32 261.238 1373.54 259.378C1360.58 252.933 1339.92 243.432 1336.64 242.992C1346.84 247.613 1357.06 252.412 1367.71 257.583C1378.64 262.929 1388.27 268.605 1409.05 278.404C1414.23 281.341 1412 280.919 1412.62 281.294ZM384.201 691.115C384.247 690.589 377.877 693.351 370.929 695.147C364.068 697.033 356.947 697.714 356.857 697.892C356.834 698.227 366.054 696.975 367.361 696.619C367.37 696.617 367.378 696.615 367.387 696.614C367.94 696.519 365.239 697.503 369.569 696.598C374.626 695.211 379.506 693.351 384.201 691.115ZM2032.14 519.237C2034.95 516.238 2111.89 468.214 2115.15 468.389C2115.78 467.998 2114.77 468.259 2114.97 468.014C2096.21 478.027 2069.94 492.753 2053.3 504.004C2048.62 507.124 2050.21 506.498 2049.95 506.678C2049.94 506.685 2049.93 506.693 2049.92 506.701C2047.25 508.469 2035 515.905 2032.14 519.237ZM1545.93 366.45C1543.01 364.004 1539.93 361.474 1537.04 359.109C1536.1 358.756 1535.16 358.403 1534.22 358.05C1534.23 358.056 1534.24 358.061 1534.25 358.066C1538.08 360.77 1542.06 363.625 1545.93 366.45ZM1644.88 454.441C1644.34 453.649 1643.8 452.856 1643.25 452.061C1636.39 445.452 1629.3 438.696 1622.35 432.193C1623.14 432.772 1623.92 433.351 1624.7 433.928C1614.19 423.718 1609.35 420.31 1603.58 414.98C1603.59 414.986 1603.59 414.991 1603.6 414.997C1602.99 414.435 1602.46 413.403 1600.2 411.368C1595 406.628 1579.59 393.147 1577.41 391.917C1572.99 389.173 1604.15 415.536 1609.78 420.979C1612.34 423.327 1615.06 426.321 1616.66 427.806C1618.37 429.39 1621.03 431.184 1625.1 435.009C1626.26 436.066 1639.15 449.034 1644.88 454.441ZM1773.89 563.913C1771.55 562.082 1766.02 559.222 1764.18 557.945C1763.74 557.642 1767.47 559.573 1763.25 556.751C1761.9 556.187 1760.55 555.609 1759.2 555.016C1764.02 558.151 1768.88 561.111 1773.89 563.913ZM336.938 697.744C337.84 698.346 353.112 699.288 353.957 698.83C358.608 698.115 352.795 698.53 346.796 698.232C340.814 698.012 334.104 696.854 336.938 697.744ZM123.561 377.285C127.069 383.274 78.2547 313.796 72.044 307.855C72.819 307.552 85.0698 324.154 79.1804 315.101C85.1634 323.329 102.309 345.613 105.895 351.04C108.193 354.395 108.252 355.598 108.592 356.107C109.996 358.1 122.484 374.828 123.561 377.285ZM25.8976 254.484C30.3956 259.404 34.8437 264.362 39.2484 269.367C40.2162 270.476 41.1789 271.584 42.1364 272.692C41.1507 271.61 40.16 270.527 39.1643 269.444C33.6394 263.489 28.0491 257.601 22.3927 251.78C23.5636 252.68 24.7307 253.58 25.8976 254.484ZM18.6053 247.347C18.3233 247.987 -0.606942 228.014 -5.99126 223.174C0.726165 227.963 9.58062 238.366 18.6053 247.347ZM259.199 634.664C265.407 646.008 270.128 649.208 261.263 636.658C260.992 636.273 258.946 634.184 259.199 634.664ZM1464.23 314.63C1466.2 315.734 1488.29 330.669 1489.78 331.355C1494.55 333.146 1479.42 323.708 1474.77 320.334C1467.07 314.723 1479.37 321.572 1459.21 309.741C1460.13 310.035 1461.03 310.312 1461.98 310.625C1450.47 303.61 1453.42 307.245 1451.24 306.174C1450.58 305.846 1443.27 301.44 1441.85 300.758C1440.6 300.148 1439.64 299.69 1438.93 299.366C1436.85 298.443 1437.12 298.746 1438.71 299.735C1444.32 303.079 1462.9 313.736 1464.23 314.63ZM494.973 575.011C509.285 554.097 502.645 562.643 516.654 540.632C516.725 539.676 496.419 572.168 494.973 575.011ZM1243.19 209.215C1267.96 217.408 1287.77 225.72 1310.54 234.31C1309.7 231.734 1237.18 206.165 1243.19 209.215ZM2312.25 414.308C2276.98 417.949 2240.1 425.121 2203.33 436.174C2134.16 455.843 2069.01 493.987 2012.35 536.584C2002.63 543.481 2001.38 543.656 1997.87 546.148C1995.57 547.763 1996.23 547.839 1993.1 549.946C1959.81 573.113 1921.3 589.747 1881.25 591.572C1783.22 601.153 1713.54 523.138 1650.74 463.131C1644.99 457.452 1617.07 429.72 1609.82 425.162C1604.44 421.623 1625.77 440.152 1629.14 443.443C1631.73 445.897 1631.49 446.359 1633.21 447.985C1635.02 449.707 1633.75 448.041 1635.85 450.031C1644.77 458.49 1654.39 467.983 1662.37 475.677C1722.2 533.661 1790.96 601.513 1881.3 592.533C1904.89 591.16 1928.27 585.687 1949.99 575.871C1962.16 570.231 1959.75 571.578 1960.38 571.33C1960.39 571.325 1960.4 571.32 1960.41 571.315C2023.32 536.338 2083.62 480.054 2154.95 454.341C2170.88 447.976 2187.1 442.363 2203.68 437.367C2237.75 427.11 2272.57 419.731 2307.75 415.192C2309.26 414.892 2310.76 414.597 2312.25 414.308ZM1416.7 285.639C1421.42 289.814 1423.64 289.654 1439.23 298.823C1440.7 299.682 1442.27 300.62 1443.95 301.65C1445.76 302.394 1447.55 303.14 1449.34 303.888C1446.11 302.018 1442.84 300.155 1439.53 298.299C1431.95 294.027 1424.56 289.905 1416.66 285.621C1416.67 285.627 1416.69 285.633 1416.7 285.639ZM1546.57 370.741C1548.54 374.445 1590.19 406.796 1607.18 423.3C1611.15 425.436 1585.08 402.707 1578.95 397.554C1575.93 394.871 1559.88 380.042 1546.52 370.441C1546.54 370.541 1546.56 370.641 1546.57 370.741ZM167.411 455.05C169.319 458.392 171.145 461.624 173.032 465.009C168.758 456.585 164.16 447.824 159.691 439.561C167.129 452.857 174.383 466.518 181.24 480.031C179.576 477.736 177.896 475.43 176.198 473.111C173.308 467.041 170.372 461.006 167.411 455.05ZM190.612 498.865C178.456 475.173 191.995 499.346 194.554 505.758C196.059 509.483 191.887 501.361 190.612 498.865ZM220.091 562.156C214.19 551.19 203.309 528.271 208.481 535.789C213.583 548.184 217.831 556.009 225.765 573.889C224.317 571.462 222.857 569.005 221.386 566.519C221.38 566.507 221.375 566.495 221.369 566.483C220.946 565.048 220.52 563.606 220.091 562.156ZM184.328 488.399C177.136 472.315 199.771 517.883 192.095 503.835C191.728 503.106 184.645 489.04 184.328 488.399ZM2202.99 439.429C2204.87 438.327 2191.85 442.425 2187.76 443.819C2169.22 449.844 2146.06 459.257 2127.75 467.953C2129.19 467.442 2130.71 466.903 2132.11 466.427C2154.97 455.844 2178.77 446.895 2202.99 439.429ZM2072.29 498.494C2060.51 505.9 2048.97 513.743 2037.53 521.803C2036.45 522.567 2031.68 526.444 2035.46 523.89C2047.57 515.114 2059.78 506.556 2072.29 498.494ZM1337.1 248.965C1346.68 253.569 1318.19 242.289 1320.01 241.572C1325.74 243.99 1331.36 246.424 1337.1 248.965ZM1244.94 212.933C1251.37 214.978 1257.64 217.044 1263.94 219.191C1263.89 219.354 1263.84 219.516 1263.79 219.678C1257.54 217.369 1251.32 215.141 1244.94 212.933ZM2255.91 425.873C2248.85 426.772 2232.47 430.787 2222.32 433.62C2229.41 432.132 2246.12 427.689 2255.91 425.873ZM1476.86 324.981C1476.45 323.977 1511.46 347.661 1498.9 340.025C1491.77 334.99 1484.26 329.866 1476.86 324.981ZM1546.41 375.08C1539.28 369.593 1533.64 365.18 1535.53 365.828C1539.39 368.797 1543.19 371.767 1546.93 374.735C1546.76 374.85 1546.59 374.965 1546.41 375.08ZM239.607 605.855C246.543 619.641 253.781 633.285 262.235 646.472C261.789 646.087 261.342 645.699 260.896 645.307C252.817 632.538 245.807 619.306 239.132 606.036C239.291 605.976 239.449 605.916 239.607 605.855ZM2264.67 425.578C2274.88 423.382 2285.25 421.419 2295.57 419.719C2285.21 421.199 2274.79 422.944 2264.51 424.925C2264.56 425.145 2264.6 425.366 2264.64 425.586C2264.65 425.583 2264.66 425.581 2264.67 425.578ZM142.558 419.771C165.63 460.292 134.73 409.274 128.857 398.669C128.849 398.658 128.841 398.647 128.833 398.637C128.334 397.669 129.988 399.326 129.181 397.699C131.576 401.842 133.911 405.959 136.191 410.049C138.689 413.536 141.253 417.187 143.717 420.728C144.36 422.005 144.998 423.279 145.63 424.55C144.615 422.961 143.591 421.368 142.558 419.771ZM29.6936 269.851C7.16765 245.757 20.9678 259.073 34.3467 273.871L34.3267 273.849C38.0998 278.081 41.7733 282.391 44.6072 285.96C44.4228 285.988 38.3837 279.273 33.8196 274.311L33.8416 274.335C32.0125 272.358 30.4541 270.68 29.6936 269.851ZM99.7282 355.365C103.77 360.77 107.7 366.146 111.524 371.487C111.885 372.26 112.24 373.026 112.601 373.804C109.638 369.736 106.622 365.661 103.537 361.562C102.283 359.502 101.013 357.436 99.7282 355.365ZM206.376 546.382C210.845 556.3 218.108 567.992 203.004 536.871C202.859 536.96 202.714 537.05 202.569 537.14C203.191 538.387 205.058 541.971 205.138 542.172C205.367 542.757 204.549 542.345 206.376 546.382ZM-28.4322 217.719C-29.3635 216.957 -31.0017 217.793 -38.9528 208.045C-41.8139 205.602 -44.6884 203.174 -47.5761 200.763C-48.0417 199.822 -48.509 198.882 -48.9779 197.943C-38.2775 207.835 -36.6613 208.344 -35.8565 209.031C-32.2297 212.247 -35.1507 210.129 -32.8529 212.246C-26.8934 217.685 -13.4553 230.167 -20.2766 225.272C-22.7264 223.507 -27.5079 218.485 -28.4322 217.719ZM-8.59799 238.152C-9.74895 236.805 -5.33822 240.426 -6.18224 239.385C-6.89161 238.447 -19.1164 225.834 -15.0965 228.506C-13.0461 230.535 -11.0036 232.573 -8.96889 234.621C-8.43979 235.479 -7.91307 236.337 -7.38718 237.196C-5.24377 238.996 -3.10622 240.806 -0.974659 242.626C1.93247 246.379 8.3885 254.056 -0.296357 245.945C2.81302 249.006 5.90848 252.093 8.97885 255.193C10.7563 256.618 12.5303 258.051 14.3007 259.49C13.1664 258.934 12.0318 258.381 10.897 257.83C4.4885 251.186 -2.01335 244.623 -8.59799 238.152ZM-110.786 149.696C-110.226 149.835 -109.666 149.975 -109.106 150.116C-122.101 140.72 -142.615 126.506 -130.227 133.552C-112.477 146.094 -95.1316 159.215 -78.2186 172.884C-77.207 173.93 -76.1998 174.976 -75.1941 176.025C-87.3418 165.255 -85.1882 170.579 -95.7405 161.221C-97.5353 159.662 -91.4721 163.093 -103.674 154.458C-103.39 154.962 -103.107 155.465 -102.824 155.969C-105.466 153.866 -108.122 151.773 -110.786 149.696ZM-225.965 74.3756C-202.235 88.1351 -228.915 73.9488 -233.066 70.998C-233.058 71.0022 -233.05 71.0063 -233.043 71.0105C-244.338 62.7182 -218.556 77.8302 -217.021 78.8132C-214.92 80.0034 -209.299 81.6005 -198.984 90.0263C-207.895 84.6672 -216.888 79.4501 -225.965 74.3756ZM-149.934 121.646C-151.865 120.387 -150.618 120.823 -151.445 120.268C-151.452 120.263 -151.46 120.258 -151.467 120.253C-163.57 111.916 -193.334 93.6631 -196.083 90.8809C-186.538 96.1197 -145.661 122.6 -143.824 125.116C-145.857 123.951 -147.894 122.795 -149.934 121.646ZM-67.1283 183.444C-60.6914 189.801 -76.2693 176.787 -80.223 173.212C-80.9608 172.523 -73.805 176.849 -67.1283 183.444ZM371.214 711.094C393.669 704.456 363.98 712.257 374.055 708.838C369.803 710.014 365.459 710.898 361.076 711.462C364.435 711.525 367.819 711.403 371.214 711.094ZM1059.66 183.764C1064.23 184.194 1062.09 183.624 1062.49 183.648C1065.5 183.898 1068.29 184.482 1069.44 184.553C1090.73 186.008 1076.67 184.254 1076.46 184.138C1076.05 183.692 1081.7 183.794 1074 182.547C1069.28 182.224 1064.54 181.955 1059.8 181.743C1057.47 181.344 1055.16 180.96 1052.83 180.59C1043.42 180.512 1055.69 181.362 1057.01 182.121C1057.53 182.409 1048.72 182.095 1059.66 183.764ZM409.394 695.668C412.286 692.954 418.524 687.248 411.306 691.584C411.297 691.589 411.289 691.595 411.281 691.601C409.874 692.475 404.3 696.027 402.473 696.854C390.411 704.492 395.762 703.379 409.394 695.668ZM975.459 185.235C967.91 185.714 960.421 186.367 952.899 187.213C952.974 186.775 953.049 186.338 953.125 185.9C957.161 185.475 961.197 185.105 965.231 184.788C966.623 184.444 968.017 184.107 969.412 183.775C964.368 183.783 959.31 183.874 954.239 184.05C948.201 185.01 942.259 186.08 936.291 187.279C939.079 187.025 941.864 186.8 944.646 186.6C930.08 189.206 933.037 187.674 920.952 189.685C916.915 190.93 912.895 192.234 908.892 193.598C902.881 194.636 896.947 195.79 890.971 197.093C887.801 198.065 885.58 198.815 884.251 199.309C882.144 200.096 882.259 200.234 884.392 199.792C885.094 199.648 886.013 199.444 887.146 199.185C886.289 199.537 885.406 199.855 884.5 200.153C880.359 201.514 875.759 202.458 871.069 204.25C870.597 204.43 871.649 204.58 871.229 204.73C841.828 215.661 842.994 214.804 838.33 216.571C835.036 217.91 822.561 224.81 822.492 225.23C822.534 225.795 849.379 213.709 808.343 234.851C829.685 224.185 854.309 213.107 837.603 218.538C844.439 215.227 875.492 203.234 877.702 202.902C880.697 202.012 879.825 202.911 883.572 201.759C883.907 201.657 884.317 201.499 884.834 201.291C887.716 200.167 893.927 197.242 909.119 194.586C911.33 193.824 913.547 193.08 915.769 192.356C917.934 192.062 920.098 191.786 922.26 191.528C918.008 193.079 913.782 194.696 909.584 196.38C926.638 191.557 941.354 190.532 951.851 187.944C961.125 186.823 965.635 186.539 961.72 187.546C964.496 187.226 967.274 186.931 970.052 186.661C971.84 186.177 973.652 185.7 975.459 185.235ZM455.249 651.684C462.103 644.552 463.253 640.67 462.213 641.883C456.361 648.537 451.683 655.322 455.249 651.684ZM1042.78 181.992C1032.48 181.16 1022.19 180.611 1011.86 180.367C1011.87 180.816 1011.87 181.265 1011.87 181.714C1022.17 181.509 1032.46 181.608 1042.78 181.992ZM368.029 712.785C366.842 712.667 365.663 712.527 364.498 712.364C351.709 715.583 338.999 712.674 332.127 711.442C331.768 711.382 331.429 711.328 331.105 711.281C330.269 711.156 330.846 711.508 332.023 711.941C332.88 712.253 334.038 712.597 335.182 712.832C336.06 713.021 343.543 714.328 351.255 714.312C359.126 714.406 366.846 713.083 368.029 712.785ZM78.4582 339.228C81.2552 342.514 84.0078 345.791 86.7174 349.058C86.2742 349.098 85.8312 349.138 85.388 349.178C84.0819 347.541 82.7652 345.901 81.4377 344.259C80.4547 342.586 79.4615 340.909 78.4582 339.228ZM107.264 377.968C111.591 384.332 115.756 390.626 119.808 396.907C103.669 373.152 116.647 392.935 106.358 378.597C106.66 378.388 106.962 378.178 107.264 377.968ZM147.438 443.344C146.779 442.652 146.117 441.959 145.454 441.265C141.594 434.6 137.82 428.25 133.849 421.734C135.687 426.259 137.462 430.748 139.178 435.2C140.6 437.613 142.015 440.038 143.405 442.442C144.75 442.741 146.094 443.042 147.438 443.344ZM1257.04 230.007C1261.39 231.552 1276.46 236.516 1275.88 236.046C1269.92 233.422 1263.79 230.801 1257.65 228.253C1257.47 228.666 1257.29 229.08 1257.1 229.493C1256.31 228.969 1255.52 228.445 1254.72 227.921C1251.15 226.823 1247.55 225.738 1243.93 224.667C1242.26 223.676 1240.56 222.679 1238.92 221.712C1236.99 221.535 1235.06 221.362 1233.11 221.194C1249.96 227.675 1249.69 226.877 1253.21 228.106C1255 228.748 1256.03 229.417 1256.61 229.776C1256.75 229.853 1256.9 229.93 1257.04 230.007ZM1035.53 184.577C1056.91 185.465 1069.24 185.472 1084.55 188.196C1074.94 184.123 1010.58 182.684 988.034 183.395C985.71 183.871 983.391 184.364 981.077 184.874C993.299 183.684 1001.87 184.157 1007.84 184.13C1012.6 184.125 1012.1 183.793 1012.46 183.79C1012.48 183.79 1012.5 183.79 1012.52 183.79C1023.67 183.856 1027.12 184.292 1035.53 184.577ZM348.696 716.071C355.92 716.982 368.348 715.02 368.298 714.111C361.51 715.171 354.515 715.499 347.675 715.069C349.047 715.304 347.514 715.954 348.696 716.071ZM149.876 452.031C151.926 456.149 157.314 465.481 155.662 461.084C155.385 460.307 149.695 451.095 153.85 456.034C148.676 446.844 148.763 449.778 149.876 452.031ZM704.634 311.511C701.906 314.18 699.206 316.874 696.531 319.592C696.126 320.443 695.722 321.294 695.322 322.146C698.381 318.569 701.484 315.023 704.634 311.511ZM292.664 698.413C288.567 693.729 279.652 688.396 273.255 679.429C270.631 676.545 267.982 673.38 265.632 670.378C265.626 670.37 265.62 670.363 265.614 670.355C265.22 670.536 264.825 670.715 264.429 670.895C272.269 680.919 281.45 690.548 292.664 698.413ZM906.733 196.469C904.451 196.831 902.171 197.213 899.888 197.616C895.967 198.889 892.059 200.222 888.166 201.617C890.351 201.137 892.535 200.677 894.72 200.236C898.711 198.917 902.714 197.662 906.733 196.469ZM247.275 645.985C253.996 657.321 257.856 660.76 248.924 646.492C245.202 640.278 240.525 634.029 247.275 645.985ZM1468.17 333.209C1464.71 330.877 1461.2 328.551 1457.64 326.231C1456.26 325.714 1454.87 325.2 1453.48 324.687C1458.46 327.513 1463.36 330.355 1468.17 333.209ZM119.87 401.983C120.377 402.248 120.883 402.513 121.389 402.779C123.391 406 125.356 409.207 127.287 412.399C126.553 411.754 125.817 411.109 125.08 410.464C123.371 407.649 121.635 404.822 119.87 401.983ZM1444.14 318.312C1441.27 316.562 1438.38 314.817 1435.45 313.076C1434.33 312.518 1433.2 311.96 1432.06 311.403C1431.2 310.987 1430.32 310.555 1429.4 310.104C1430.27 310.647 1431.1 311.171 1431.9 311.675C1433.74 312.828 1435.56 313.977 1437.37 315.128C1439.64 316.186 1441.9 317.247 1444.14 318.312ZM194.026 538.05C195.844 542.644 204.831 559.291 197.797 543.709C193.229 533.652 193.75 537.356 194.026 538.05ZM182.541 515.028C189.86 531.574 187.024 517.917 175.354 499.463C185.4 518.846 182.084 514.062 182.541 515.028ZM101.621 378.586C101.367 378.217 101.554 377.646 99.519 374.692C92.1322 363.932 82.1843 350.106 76.4429 342.57C67.0884 329.92 42.037 299.825 25.7109 281.695L25.766 281.756C19.1389 274.338 14.1687 268.789 12.8528 266.82C11.9104 265.407 15.1777 267.612 14.7419 267.087C13.4731 265.538 5.20986 257.531 7.13336 258.628C13.9933 265.741 20.7454 272.946 27.4009 280.254L27.3524 280.2C28.3109 281.263 29.2644 282.324 30.2132 283.385C29.0961 282.476 27.9748 281.567 26.8493 280.659L26.8997 280.714C25.8203 279.855 24.7396 278.999 23.6577 278.145C24.6545 279.212 25.5805 280.207 26.4417 281.135L26.3893 281.078C42.0658 298.321 36.6326 292.298 42.3506 297.442C45.079 301.184 47.9979 305.204 50.746 309.079C57.6513 316.755 64.4407 324.553 71.1217 332.491C69.4616 330.823 67.7893 329.154 66.1044 327.483C75.3572 340.083 72.8224 336.343 78.5985 342.756C78.386 342.941 78.1735 343.127 77.961 343.312C87.658 355.007 88.54 357.813 90.458 360.442C94.4485 366.075 102.243 370.822 113.823 394.246C121.027 402.325 118.262 404.075 123.049 408.516C131.262 424.949 113.417 395.121 103.935 381.47C103.93 381.462 103.925 381.455 103.92 381.448C103.223 380.423 104.056 382.164 101.621 378.586ZM152.681 457.847C146.09 448.782 166.999 487.511 161.897 473.67C160.921 471.701 159.931 469.72 158.979 467.822C156.911 464.511 154.808 461.178 152.668 457.824C152.672 457.832 152.676 457.84 152.681 457.847ZM446.14 668.177C474.793 634.819 458.046 652.886 448.479 664.771C446.574 667.075 445.614 668.391 446.14 668.177ZM1065.96 187.516C1066.57 187.392 1067.17 187.269 1067.77 187.147C1054.3 185.924 1028.28 184.373 1028.62 185.661C1041.05 185.861 1053.5 186.49 1065.96 187.516ZM959.92 189.573C962.781 189.258 974.444 188.279 973.012 187.991C967.919 188.141 962.838 188.372 957.739 188.691C955.404 189.178 953.073 189.683 950.746 190.207C954.041 189.804 959.147 189.642 959.92 189.573Z" fill="url(#paint0_linear_2324_3634)" fill-opacity="0.24"/>
</g>
<defs>
<filter id="filter0_f_2324_3634" x="-277.824" y="0" width="2825.04" height="752.038" filterUnits="userSpaceOnUse" color-interpolation-filters="sRGB">
<feFlood flood-opacity="0" result="BackgroundImageFix"/>
<feBlend mode="normal" in="SourceGraphic" in2="BackgroundImageFix" result="shape"/>
<feGaussianBlur stdDeviation="16" result="effect1_foregroundBlur_2324_3634"/>
</filter>
<linearGradient id="paint0_linear_2324_3634" x1="2393.56" y1="444.067" x2="14.9818" y2="284.43" gradientUnits="userSpaceOnUse">
<stop stop-color="#FAB53D"/>
<stop offset="0.769231" stop-color="#4D2AA0"/>
</linearGradient>
</defs>
</svg>
